<?xml version="1.0" encoding="utf-8"?>
<svg version="1.1" style="enable-background:new 0 0 500 500;" width="1000" height="1000" viewBox="267.961 7.975 367.934 412.735" xmlns="http://www.w3.org/2000/svg">
  <g transform="matrix(1, 0, 0, 1, -39.556386, -19.096218)">
    <g id="OBJECTS">
      <g style="" transform="matrix(2.120213, 0, 0, 2.120213, -353.037542, -484.862861)">
        <g>
          <g>
            <g>
              <path style="fill:#212237;" d="M369.198,285.085c-2.513,1.98-4.29,5.452-3.477,8.701c0.756,3.022,3.807,4.587,6.756,4.389&#10;&#9;&#9;&#9;&#9;&#9;&#9;c0.298-0.02,0.414-0.511,0.076-0.56c-3.082-0.45-6.022-1.596-6.262-5.196c-0.181-2.729,1.321-5.215,3.243-6.997&#10;&#9;&#9;&#9;&#9;&#9;&#9;C369.766,285.209,369.432,284.901,369.198,285.085L369.198,285.085z"/>
            </g>
          </g>
          <g>
            <g>
              <path style="fill:#212237;" d="M422.732,290.227c0.084,2.338,0.136,5.125-2.214,6.426c-1.831,1.014-5.105,1.683-6.966,0.647&#10;&#9;&#9;&#9;&#9;&#9;&#9;c-0.192-0.107-0.433,0.112-0.31,0.31c1.348,2.167,5.675,0.817,7.451-0.079c2.875-1.45,2.862-4.56,2.483-7.364&#10;&#9;&#9;&#9;&#9;&#9;&#9;C423.143,289.913,422.723,289.975,422.732,290.227L422.732,290.227z"/>
            </g>
          </g>
          <g>
            <path style="fill:#212237;" d="M389.247,326.749c-1.573,0.135-3.1-0.581-4.51-1.383c-4.061-2.31-7.822-3.473-10.25-7.83&#10;&#9;&#9;&#9;&#9;&#9;c-2.428-4.357-3.384-12.008-1.862-16.866c2.769-8.838,10.687-14.773,19.395-15.583c7.981-0.742,16.953,2.096,21.762,8.732&#10;&#9;&#9;&#9;&#9;&#9;c3.06,4.222,4.671,10.242,3.803,16.55c-1.048,7.615-6.762,14.911-13.354,15.808"/>
          </g>
          <g>
            <g>
              <path style="fill:#FFD1B8;" d="M407.198,310.152c-0.123-0.492,0.113-2.08,1.45-3.025c2.355-1.664,4.742,1.356,5.077,4.178&#10;&#9;&#9;&#9;&#9;&#9;&#9;c0.21,1.772-0.034,3.268-0.818,4.901c-1.033,2.151-2.83,3.058-4.365,1.173"/>
            </g>
            <g>
              <path style="fill:#D6E3ED;" d="M411.701,312.353c-0.191-0.822-1.087-1.064-1.63-0.48c-0.266,0.286-0.25,0.602-0.054,0.952&#10;&#9;&#9;&#9;&#9;&#9;&#9;c0.127,0.226,0.298,0.426,0.402,0.664c0.234,0.534,0.095,1.147-0.049,1.705c0.197,0.038,0.853,0.126,0.853,0.126&#10;&#9;&#9;&#9;&#9;&#9;&#9;s0.407-0.907,0.461-1.77C411.71,313.15,411.792,312.746,411.701,312.353z"/>
            </g>
          </g>
          <g>
            <g>
              <path style="fill:#FFD1B8;" d="M382.389,312.955c-0.076-0.501-0.903-1.877-2.501-2.236c-2.813-0.632-3.857,3.074-3.081,5.807&#10;&#9;&#9;&#9;&#9;&#9;&#9;c0.487,1.716,1.288,3.004,2.639,4.21c1.78,1.589,3.788,1.736,4.481-0.594"/>
            </g>
            <g>
              <path style="fill:#D6E3ED;" d="M379.078,316.717c-0.14-0.833,0.594-1.4,1.32-1.069c0.355,0.162,0.463,0.46,0.415,0.858&#10;&#9;&#9;&#9;&#9;&#9;&#9;c-0.031,0.258-0.112,0.508-0.116,0.768c-0.011,0.583,0.354,1.095,0.7,1.555c-0.167,0.11-0.739,0.444-0.739,0.444&#10;&#9;&#9;&#9;&#9;&#9;&#9;s-0.724-0.681-1.105-1.457C379.376,317.456,379.145,317.115,379.078,316.717z"/>
            </g>
          </g>
          <path style="fill:#FFD1B8;" d="M406.682,325.631l1.719,18.962c0,0-2.492,3.839-11.01,3.65&#10;&#9;&#9;&#9;&#9;c-6.991-0.155-12.558-4.416-12.558-4.416l3.229-17.648L406.682,325.631z"/>
          <g style="opacity:0.75;">
            <path style="fill:#FFD1B8;" d="M407.682,336.659l-0.963-10.758l-19.579,0.259l-0.166,2.285c1.076,2.201,2.823,4.114,4.889,5.454&#10;&#9;&#9;&#9;&#9;&#9;c3.455,2.24,7.673,3.051,11.791,3.083C405.086,336.993,406.3,337.002,407.682,336.659z"/>
          </g>
          <path style="fill:#FFD1B8;" d="M392.27,292.203c21.899-3.359,23.606,37.026,7.506,39.072&#10;&#9;&#9;&#9;&#9;C377.899,334.056,372.128,295.293,392.27,292.203z"/>
          <g>
            <g style="opacity:0.55;">
              <path style="fill:#FFD1B8;" d="M391.088,317.984c-0.583-1.241-1.985-1.301-3.094-1.002c-1.589,0.429-3.384,1.878-2.381,3.845&#10;&#9;&#9;&#9;&#9;&#9;&#9;c0.803,1.575,3.118,1.607,4.423,0.886C391.269,321.033,391.713,319.314,391.088,317.984z"/>
            </g>
            <g>
              <g>
                <g>
                  <path style="fill:#EF9470;" d="M386.212,319.781c0.412,0,0.413-0.641,0-0.641C385.8,319.14,385.799,319.781,386.212,319.781&#10;&#9;&#9;&#9;&#9;&#9;&#9;&#9;&#9;L386.212,319.781z"/>
                </g>
              </g>
              <g>
                <g>
                  <path style="fill:#EF9470;" d="M387.983,318.398c0.026,0.219,0.34,0.295,0.407,0.055&#10;&#9;&#9;&#9;&#9;&#9;&#9;&#9;&#9;C388.475,318.144,387.949,318.109,387.983,318.398L387.983,318.398z"/>
                </g>
              </g>
              <g>
                <g>
                  <path style="fill:#EF9470;" d="M388.908,321.033c0.171,0,0.171-0.266,0-0.266&#10;&#9;&#9;&#9;&#9;&#9;&#9;&#9;&#9;C388.737,320.767,388.737,321.033,388.908,321.033L388.908,321.033z"/>
                </g>
              </g>
              <g>
                <g>
                  <path style="fill:#EF9470;" d="M388.116,319.503c-0.126-0.185-0.179-0.227-0.159-0.127c0.154-0.172,0.179-0.232,0.076-0.179&#10;&#9;&#9;&#9;&#9;&#9;&#9;&#9;&#9;c-0.009,0.031-0.089,0.049-0.075,0.098C387.984,319.39,387.966,319.503,388.116,319.503L388.116,319.503z"/>
                </g>
              </g>
              <g>
                <g>
                  <path style="fill:#EF9470;" d="M387.264,320.832c0.332,0,0.332-0.516,0-0.516&#10;&#9;&#9;&#9;&#9;&#9;&#9;&#9;&#9;C386.933,320.317,386.932,320.832,387.264,320.832L387.264,320.832z"/>
                </g>
              </g>
              <g>
                <g>
                  <path style="fill:#EF9470;" d="M389.434,319.814c-0.013-0.056-0.025-0.111-0.038-0.167c-0.032-0.144-0.274-0.115-0.261,0.035&#10;&#9;&#9;&#9;&#9;&#9;&#9;&#9;&#9;c0.005,0.057,0.01,0.113,0.015,0.17C389.168,320.062,389.48,320.02,389.434,319.814L389.434,319.814z"/>
                </g>
              </g>
              <g>
                <g>
                  <path style="fill:#EF9470;" d="M389.709,318.548c0.347,0,0.347-0.539,0-0.539&#10;&#9;&#9;&#9;&#9;&#9;&#9;&#9;&#9;C389.362,318.009,389.362,318.548,389.709,318.548L389.709,318.548z"/>
                </g>
              </g>
            </g>
          </g>
          <g>
            <g style="opacity:0.55;">
              <path style="fill:#FFD1B8;" d="M408.558,315.712c-0.309-1.337-1.666-1.69-2.813-1.631c-1.645,0.085-3.704,1.123-3.138,3.257&#10;&#9;&#9;&#9;&#9;&#9;&#9;c0.453,1.709,2.709,2.228,4.137,1.798C408.092,318.731,408.888,317.144,408.558,315.712z"/>
            </g>
            <g>
              <g>
                <g>
                  <path style="fill:#EF9470;" d="M403.48,316.448c0.412,0,0.413-0.641,0-0.641C403.068,315.808,403.068,316.448,403.48,316.448&#10;&#9;&#9;&#9;&#9;&#9;&#9;&#9;&#9;L403.48,316.448z"/>
                </g>
              </g>
              <g>
                <g>
                  <path style="fill:#EF9470;" d="M405.637,315.714c0.267,0,0.267-0.414,0-0.414C405.371,315.3,405.37,315.714,405.637,315.714&#10;&#9;&#9;&#9;&#9;&#9;&#9;&#9;&#9;L405.637,315.714z"/>
                </g>
              </g>
              <g>
                <g>
                  <path style="fill:#EF9470;" d="M405.812,318.236c0.171,0,0.171-0.266,0-0.266&#10;&#9;&#9;&#9;&#9;&#9;&#9;&#9;&#9;C405.641,317.97,405.641,318.236,405.812,318.236L405.812,318.236z"/>
                </g>
              </g>
              <g>
                <g>
                  <path style="fill:#EF9470;" d="M405.367,316.574c0.211,0,0.211-0.328,0-0.328&#10;&#9;&#9;&#9;&#9;&#9;&#9;&#9;&#9;C405.156,316.246,405.155,316.574,405.367,316.574L405.367,316.574z"/>
                </g>
              </g>
              <g>
                <g>
                  <path style="fill:#EF9470;" d="M404.274,317.697c0.332,0,0.332-0.516,0-0.516&#10;&#9;&#9;&#9;&#9;&#9;&#9;&#9;&#9;C403.942,317.181,403.942,317.697,404.274,317.697L404.274,317.697z"/>
                </g>
              </g>
              <g>
                <g>
                  <path style="fill:#EF9470;" d="M406.555,317.161c0-0.057-0.001-0.115-0.002-0.172c-0.002-0.176-0.245-0.165-0.266,0&#10;&#9;&#9;&#9;&#9;&#9;&#9;&#9;&#9;c-0.007,0.057-0.015,0.115-0.022,0.172C406.243,317.341,406.557,317.352,406.555,317.161L406.555,317.161z"/>
                </g>
              </g>
              <g>
                <g>
                  <path style="fill:#EF9470;" d="M407.148,315.979c0.347,0,0.348-0.539,0-0.539C406.801,315.44,406.8,315.979,407.148,315.979&#10;&#9;&#9;&#9;&#9;&#9;&#9;&#9;&#9;L407.148,315.979z"/>
                </g>
              </g>
            </g>
          </g>
          <path style="fill:#FFFFFF;" d="M402.596,322.913l-10.64,0.919c0,0,0.382,5.457,6.093,4.908&#10;&#9;&#9;&#9;&#9;C402.122,328.349,402.596,322.913,402.596,322.913z"/>
          <g>
            <g>
              <path style="fill:#010101;" d="M390.745,313.083c-0.367-1.234-1.586-1.87-2.822-1.894c-1.203-0.024-2.732,0.75-2.663,2.125&#10;&#9;&#9;&#9;&#9;&#9;&#9;c0.02,0.394,0.48,0.481,0.699,0.189c0.591-0.789,1.053-1.392,2.125-1.387c0.87,0.004,1.736,0.373,2.093,1.205&#10;&#9;&#9;&#9;&#9;&#9;&#9;C390.317,313.648,390.843,313.415,390.745,313.083L390.745,313.083z"/>
            </g>
          </g>
          <g>
            <g>
              <path style="fill:#EF9470;" d="M395.348,310.342c0.858,1.666,1.352,3.549,1.694,5.385c0.166,0.888,0.305,1.799,0.285,2.705&#10;&#9;&#9;&#9;&#9;&#9;&#9;c-0.034,1.565-1.111,1.83-2.465,1.221c-0.184-0.083-0.467,0.107-0.315,0.315c1.192,1.633,3.267,0.93,3.421-0.97&#10;&#9;&#9;&#9;&#9;&#9;&#9;c0.237-2.915-0.918-6.315-2.471-8.743C395.436,310.162,395.297,310.243,395.348,310.342L395.348,310.342z"/>
            </g>
          </g>
          <path style="fill:none;stroke:#473933;stroke-linecap:round;stroke-miterlimit:10;" d="M389.635,308.588&#10;&#9;&#9;&#9;&#9;c-1.146-1.518-4.826-1.97-6.509,0.675"/>
          <g>
            <g>
              <path style="fill:#010101;" d="M402.264,311.8c0.104-0.956,1.051-1.61,1.939-1.772c0.932-0.17,1.5,0.316,2.204,0.828&#10;&#9;&#9;&#9;&#9;&#9;&#9;c0.279,0.203,0.624-0.131,0.551-0.423c-0.335-1.332-2.01-1.641-3.159-1.266c-1.173,0.384-2.166,1.342-2.156,2.633&#10;&#9;&#9;&#9;&#9;&#9;&#9;C401.646,312.209,402.222,312.189,402.264,311.8L402.264,311.8z"/>
            </g>
          </g>
          <path style="fill:none;stroke:#473933;stroke-linecap:round;stroke-miterlimit:10;" d="M400.277,307.394&#10;&#9;&#9;&#9;&#9;c0.631-1.794,4.001-3.342,6.407-1.332"/>
          <g>
            <g>
              <path style="fill:#EF9470;" d="M391.292,330.546c3.757,2.19,10.453,3.258,13.592-0.598c0.147-0.181-0.042-0.501-0.27-0.35&#10;&#9;&#9;&#9;&#9;&#9;&#9;c-4.334,2.883-8.489,2.37-13.205,0.669C391.245,330.208,391.146,330.46,391.292,330.546L391.292,330.546z"/>
            </g>
          </g>
          <g>
            <path style="fill:#212237;" d="M379.197,311.391c4.47-3.577,9.114-7.381,11.315-12.666c1.054,1.009,2.108,2.018,3.162,3.027&#10;&#9;&#9;&#9;&#9;&#9;c0.358,0.343,0.772,0.708,1.268,0.693c0.789-0.024,1.201-0.974,1.211-1.764c0.01-0.789-0.175-1.636,0.201-2.331&#10;&#9;&#9;&#9;&#9;&#9;c-0.807,1.292,0.725,3.147,2.216,2.835c1.491-0.312,2.274-2.214,1.707-3.628c2.626,4.044,6.193,7.473,10.339,9.936&#10;&#9;&#9;&#9;&#9;&#9;c1.397-3.82,0.101-9.627-2.214-12.971c-3.462-5-9.883-7.388-16.173-6.913c-6.528,0.493-13.047,5.83-14.042,12.429&#10;&#9;&#9;&#9;&#9;&#9;C377.76,302.864,377.819,307.394,379.197,311.391"/>
          </g>
          <g>
            <g>
              <path style="fill:#3B3D54;" d="M401.972,295.332c1.356,1.787,2.6,3.645,3.718,5.59c0.852,1.482,1.46,3.2,2.872,4.24&#10;&#9;&#9;&#9;&#9;&#9;&#9;c0.147,0.108,0.306-0.121,0.189-0.245c-1.439-1.529-2.275-3.591-3.413-5.347c-0.983-1.516-2.059-2.965-3.194-4.37&#10;&#9;&#9;&#9;&#9;&#9;&#9;C402.067,295.104,401.897,295.233,401.972,295.332L401.972,295.332z"/>
            </g>
          </g>
          <g>
            <g>
              <path style="fill:#3B3D54;" d="M389.684,295.398c-1.811,5.362-5.461,9.268-8.77,13.717c-0.116,0.155,0.133,0.336,0.264,0.204&#10;&#9;&#9;&#9;&#9;&#9;&#9;c3.828-3.856,7.305-8.559,8.762-13.85C389.986,295.303,389.738,295.237,389.684,295.398L389.684,295.398z"/>
            </g>
          </g>
          <g>
            <g>
              <path style="fill:#3B3D54;" d="M386.795,296.926c-1.986,4.668-4.751,8.602-7.612,12.744c-0.102,0.147,0.124,0.316,0.245,0.189&#10;&#9;&#9;&#9;&#9;&#9;&#9;c3.435-3.563,5.799-8.273,7.553-12.855C387.021,296.898,386.84,296.82,386.795,296.926L386.795,296.926z"/>
            </g>
          </g>
          <g>
            <g>
              <path style="fill:#3B3D54;" d="M394.762,295.159c0.322,1.322,0.481,2.94,1.113,4.148c0.07,0.134,0.289,0.072,0.284-0.077&#10;&#9;&#9;&#9;&#9;&#9;&#9;c-0.046-1.364-0.708-2.85-1.081-4.158C395.02,294.868,394.712,294.953,394.762,295.159L394.762,295.159z"/>
            </g>
          </g>
          <g>
            <g>
              <path style="fill:#3B3D54;" d="M396.553,294.662c-0.007,1.46,0.351,3.18,1.432,4.236c0.121,0.118,0.299-0.031,0.227-0.175&#10;&#9;&#9;&#9;&#9;&#9;&#9;c-0.676-1.362-1.287-2.494-1.331-4.061C396.875,294.451,396.554,294.45,396.553,294.662L396.553,294.662z"/>
            </g>
          </g>
          <g>
            <g>
              <path style="fill:#3B3D54;" d="M411.723,295.178c4.189,7.751,5.407,16.766-0.337,24.067c-0.175,0.223,0.11,0.534,0.32,0.32&#10;&#9;&#9;&#9;&#9;&#9;&#9;c6.626-6.748,4.478-17.155,0.239-24.518C411.862,294.904,411.644,295.032,411.723,295.178L411.723,295.178z"/>
            </g>
          </g>
          <g>
            <g>
              <path style="fill:#3B3D54;" d="M375.206,296.449c-1.735,4.206-2.207,9.031-0.533,13.338c0.079,0.203,0.379,0.129,0.332-0.091&#10;&#9;&#9;&#9;&#9;&#9;&#9;c-0.987-4.537-1.094-8.743,0.555-13.149C375.644,296.322,375.295,296.235,375.206,296.449L375.206,296.449z"/>
            </g>
          </g>
          <g>
            <g>
              <path style="fill:#3B3D54;" d="M376.509,296.006c-0.559,3.653-0.683,7.519,0.385,11.095c0.08,0.268,0.443,0.149,0.407-0.112&#10;&#9;&#9;&#9;&#9;&#9;&#9;c-0.511-3.696-0.932-7.217-0.523-10.947C376.794,295.891,376.532,295.853,376.509,296.006L376.509,296.006z"/>
            </g>
          </g>
          <g>
            <path style="fill:#212237;" d="M379.98,290.298c0.117-1.524,0.216-3.14-0.485-4.498c-0.831-1.608-2.627-2.503-4.403-2.853&#10;&#9;&#9;&#9;&#9;&#9;c-1.004-0.198-2.05-0.255-3.047-0.022c-1.709,0.399-3.15,1.641-4.023,3.163c-0.873,1.522-1.22,3.302-1.25,5.057&#10;&#9;&#9;&#9;&#9;&#9;c-0.016,0.925,0.056,1.865,0.377,2.732c1.017,2.747,4.189,4.022,7.092,4.415c2.284,0.309,4.762,0.226,6.681-1.051"/>
          </g>
          <g>
            <path style="fill:#212237;" d="M410.367,293.415c-0.562-1.55-1.131-3.133-1.177-4.781s0.522-3.403,1.847-4.384&#10;&#9;&#9;&#9;&#9;&#9;c0.839-0.621,1.896-0.877,2.935-0.96c1.598-0.129,3.225,0.121,4.712,0.723c1.486,0.602,2.845,1.572,3.77,2.882&#10;&#9;&#9;&#9;&#9;&#9;c0.925,1.31,1.387,2.972,1.117,4.553c-0.371,2.175-2.087,3.958-4.103,4.854c-2.017,0.896-4.299,1.013-6.498,0.829"/>
          </g>
          <path style="fill:none;stroke:#FFA45B;stroke-miterlimit:10;" d="M409.128,289.42c3.115,2.069,5.594,5.083,7.023,8.539"/>
          <path style="fill:none;stroke:#FFA45B;stroke-miterlimit:10;" d="M372.885,298.718c1.118-4.097,4.629-7.894,8.036-9.797"/>
        </g>
        <g>
          <g>
            <path style="fill:#FFD1B8;" d="M347.898,295.784c2.92-4.957,14.25-23.482,13.573-23.96c-1.24-0.876-5.982,4.817-6.471,2.788&#10;&#9;&#9;&#9;&#9;&#9;c-0.489-2.03,9.753-10.876,8.852-11.645c-0.991-0.847-7.586,3.105-10.455,6.42c0.454-1.475-1.124-2.091-2.024-1.76&#10;&#9;&#9;&#9;&#9;&#9;c-0.9,0.332-1.612,1.157-2.251,1.956c0.137-0.413-0.141-0.818-0.511-0.898c-0.371-0.081-0.79,0.09-1.146,0.329&#10;&#9;&#9;&#9;&#9;&#9;c-0.792,0.532-1.364,1.377-1.909,2.193c0.295-0.437-0.084-0.996-0.551-0.993s-0.913,0.356-1.297,0.711&#10;&#9;&#9;&#9;&#9;&#9;c-2.606,2.407-11.87,17.103-11.87,17.103"/>
          </g>
          <g>
            <g>
              <path style="fill:#EF9470;" d="M345.281,271.249c-0.406,0.825-0.87,1.56-1.416,2.299c-0.253,0.342-0.485,0.762-0.818,1.031&#10;&#9;&#9;&#9;&#9;&#9;&#9;c-0.535,0.433-0.869,0.232-1.151-0.292c-0.088-0.164-0.119-0.279-0.236-0.435c-0.081-0.107-0.28-0.118-0.314,0.041&#10;&#9;&#9;&#9;&#9;&#9;&#9;c-0.251,1.166,0.997,1.935,1.937,1.236c0.563-0.418,0.941-1.15,1.327-1.718c0.438-0.645,0.834-1.309,0.934-2.092&#10;&#9;&#9;&#9;&#9;&#9;&#9;C345.56,271.181,345.34,271.129,345.281,271.249L345.281,271.249z"/>
            </g>
          </g>
          <g>
            <g>
              <path style="fill:#EF9470;" d="M344.525,273.105c-0.254,0.718-0.555,1.841-0.023,2.508c0.48,0.602,1.274,0.469,1.853,0.093&#10;&#9;&#9;&#9;&#9;&#9;&#9;c0.884-0.575,1.3-1.611,1.725-2.529c0.563-1.22,1.239-2.425,1.337-3.789c0.016-0.227-0.297-0.232-0.368-0.05&#10;&#9;&#9;&#9;&#9;&#9;&#9;c-0.605,1.538-1.145,3.09-1.924,4.555c-0.335,0.63-1.921,2.745-2.399,0.823c-0.131-0.528,0.064-1.077-0.093-1.611&#10;&#9;&#9;&#9;&#9;&#9;&#9;C344.615,273.051,344.543,273.055,344.525,273.105L344.525,273.105z"/>
            </g>
          </g>
          <g>
            <g>
              <path style="fill:#EF9470;" d="M347.202,274.528c-0.112,0.623,0.135,1.132,0.772,1.359c0.83,0.297,1.642-0.285,2.219-0.825&#10;&#9;&#9;&#9;&#9;&#9;&#9;c1.734-1.622,2.893-4.036,3.404-6.33c0.048-0.216-0.275-0.383-0.378-0.159c-0.531,1.148-0.885,2.367-1.48,3.489&#10;&#9;&#9;&#9;&#9;&#9;&#9;c-0.251,0.474-0.534,0.935-0.852,1.368c-0.279,0.381-0.588,0.754-0.925,1.085c-0.486,0.478-2.032,1.981-2.534,0.014&#10;&#9;&#9;&#9;&#9;&#9;&#9;C347.401,274.421,347.223,274.411,347.202,274.528L347.202,274.528z"/>
            </g>
          </g>
          <g>
            <g>
              <path style="fill:#EF9470;" d="M354.852,273.384c-3.828,2.557-7.096,6.491-8.222,11.031c-0.066,0.266,0.347,0.47,0.464,0.196&#10;&#9;&#9;&#9;&#9;&#9;&#9;c1.852-4.339,4.103-8.029,7.955-10.89C355.246,273.575,355.065,273.242,354.852,273.384L354.852,273.384z"/>
            </g>
          </g>
          <g>
            <g>
              <path style="fill:#EF9470;" d="M344.295,275.65c-0.149,2.763-1.302,4.931-2.947,7.086c-0.151,0.197,0.155,0.379,0.319,0.246&#10;&#9;&#9;&#9;&#9;&#9;&#9;c2.141-1.739,3.048-4.653,2.995-7.332C344.657,275.413,344.308,275.415,344.295,275.65L344.295,275.65z"/>
            </g>
          </g>
        </g>
        <path style="fill:#FFD1B8;" d="M362.978,339.263c0,0-8.396-1.124-19.344-5.548c-10.663-4.309-6.657-21.117,6.127-41.055&#10;&#9;&#9;&#9;l-14.886-9.502c0,0-37.718,56.043-6.833,72.142c17.233,8.983,27.841,8.98,27.841,8.98"/>
        <g style="opacity:0.75;">
          <path style="fill:#FFD1B8;" d="M323.012,340.539c-1.372-2.883-2.055-6.051-2.406-9.224c-1.062-9.61,0.833-19.175,3.49-28.549&#10;&#9;&#9;&#9;&#9;c-8.137,17.779-14.991,42.663,3.946,52.533c10.179,5.306,18.044,7.476,22.78,8.364c0.563-1.692,0.957-3.455,1.241-5.21&#10;&#9;&#9;&#9;&#9;c-5.668-1.558-11.387-3.136-16.593-5.866C330.263,349.858,325.539,345.847,323.012,340.539z"/>
        </g>
        <g>
          <g>
            <path style="fill:#FFD1B8;" d="M445.669,314.657c-3.705-4.402-17.96-20.782-17.373-21.365c1.077-1.07,6.845,3.611,6.845,1.671&#10;&#9;&#9;&#9;&#9;&#9;c0-1.882-10.651-12-8.924-13.221c1.727-1.221,6.136,4.311,9.517,7.102c-0.133-0.95,0.878-1.549,1.821-1.372&#10;&#9;&#9;&#9;&#9;&#9;c0.943,0.177,1.782,0.872,2.545,1.554c-0.204-0.385,0.002-0.83,0.355-0.971c0.352-0.141,0.794-0.043,1.185,0.134&#10;&#9;&#9;&#9;&#9;&#9;c0.869,0.393,1.574,1.13,2.247,1.845c-0.363-0.382-0.083-0.996,0.378-1.07c0.46-0.075,0.96,0.199,1.397,0.485&#10;&#9;&#9;&#9;&#9;&#9;c2.971,1.94,15.024,15.224,15.024,15.224"/>
          </g>
          <g>
            <g>
              <path style="fill:#EF9470;" d="M443.921,290.156c0.246,0.801,0.81,1.394,1.366,1.997c0.438,0.475,0.83,1.055,1.415,1.363&#10;&#9;&#9;&#9;&#9;&#9;&#9;c0.929,0.49,2.482-0.505,1.738-1.54c-0.081-0.112-0.277-0.114-0.314,0.041c-0.067,0.277-0.076,0.672-0.295,0.877&#10;&#9;&#9;&#9;&#9;&#9;&#9;c-0.23,0.215-0.662,0.192-0.922,0.078c-0.368-0.161-0.669-0.571-0.936-0.857c-0.633-0.678-1.25-1.312-1.794-2.069&#10;&#9;&#9;&#9;&#9;&#9;&#9;C444.091,289.926,443.871,289.993,443.921,290.156L443.921,290.156z"/>
            </g>
          </g>
          <g>
            <g>
              <path style="fill:#EF9470;" d="M445.115,291.756c-0.063,0.537,0.266,1.069,0.2,1.582c-0.22,1.716-1.627,0.61-2.033,0.217&#10;&#9;&#9;&#9;&#9;&#9;&#9;c-0.322-0.312-0.573-0.696-0.823-1.065c-0.83-1.225-1.56-2.477-2.334-3.734c-0.113-0.183-0.39-0.063-0.343,0.145&#10;&#9;&#9;&#9;&#9;&#9;&#9;c0.3,1.316,1.193,2.384,1.932,3.48c0.592,0.879,1.204,1.901,2.254,2.286c0.695,0.255,1.51,0.073,1.776-0.681&#10;&#9;&#9;&#9;&#9;&#9;&#9;c0.258-0.729-0.177-1.63-0.527-2.256C445.188,291.677,445.12,291.706,445.115,291.756L445.115,291.756z"/>
            </g>
          </g>
          <g>
            <g>
              <path style="fill:#EF9470;" d="M442.585,293.631c-0.001,0.581-0.752,0.947-1.212,0.932c-0.374-0.012-0.696-0.124-1.032-0.275&#10;&#9;&#9;&#9;&#9;&#9;&#9;c-0.772-0.347-1.334-1.004-1.854-1.65c-0.989-1.229-1.69-2.604-2.574-3.899c-0.123-0.179-0.473-0.072-0.378,0.16&#10;&#9;&#9;&#9;&#9;&#9;&#9;c0.824,2.019,2.497,5.009,4.618,5.923c0.935,0.403,3.439,0.371,2.652-1.25C442.751,293.464,442.585,293.521,442.585,293.631&#10;&#9;&#9;&#9;&#9;&#9;&#9;L442.585,293.631z"/>
            </g>
          </g>
          <g>
            <g>
              <path style="fill:#EF9470;" d="M434.915,294.079c4.295,2.178,7.085,5.426,9.662,9.393c0.183,0.281,0.564,0.038,0.439-0.256&#10;&#9;&#9;&#9;&#9;&#9;&#9;c-1.81-4.261-5.749-7.621-9.903-9.474C434.887,293.641,434.687,293.963,434.915,294.079L434.915,294.079z"/>
            </g>
          </g>
          <g>
            <g>
              <path style="fill:#EF9470;" d="M445.511,294.283c0.386,2.634,1.783,5.392,4.186,6.722c0.197,0.109,0.418-0.157,0.246-0.319&#10;&#9;&#9;&#9;&#9;&#9;&#9;c-1.976-1.862-3.475-3.79-4.078-6.501C445.813,293.95,445.478,294.056,445.511,294.283L445.511,294.283z"/>
            </g>
          </g>
        </g>
        <path style="fill:#FFD1B8;" d="M430.286,350.956c7.444,1.473,23.842,7.113,29.087-3.603s-15.317-34.595-15.317-34.595&#10;&#9;&#9;&#9;l12.89-12.143c0,0,42.932,43.926,16.735,69.67c-16.524,16.238-50.033,6.359-50.033,6.359"/>
        <g style="opacity:0.75;">
          <path style="fill:#FFD1B8;" d="M449.789,375.444c-5.677-0.384-11.337-1.462-16.614-3.387c-2.358-0.86-4.613,0.033-7.056-0.546&#10;&#9;&#9;&#9;&#9;c-0.358-0.085-0.725-0.15-1.093-0.204l-1.379,5.336c0,0,33.509,9.879,50.033-6.359c0.571-0.561,1.098-1.134,1.604-1.712&#10;&#9;&#9;&#9;&#9;c-2.275,1.797-4.833,3.264-7.516,4.355C462.095,375.237,455.901,375.857,449.789,375.444z"/>
        </g>
        <path style="fill:#B25332;" d="M356.555,431.72c1.644-34.68,6.423-61.407,6.423-61.407l-17.275-5.2l8.52-28.128&#10;&#9;&#9;&#9;c11.26,2.718,31.19,3.672,31.19,3.672s9.354,12.842,22.744,2.436c0,0,28.554,8.698,36.332,10.014l-4.782,27.999l-18.433-2.458&#10;&#9;&#9;&#9;c0,0,1.426,25.739,5.804,54.132L356.555,431.72z"/>
        <g style="opacity:0.32;">
          <path style="fill:#FCD4C8;" d="M427.388,379.464l12.319,1.643l0.806-4.72c-6.608-0.877-6.023-0.799-12.631-1.676&#10;&#9;&#9;&#9;&#9;C426.926,374.583,427.388,379.464,427.388,379.464z"/>
        </g>
        <g style="opacity:0.32;">
          <path style="fill:#FCD4C8;" d="M360.056,364.526c-5.529-1.625-7.509-2.207-13.038-3.832l-1.315,4.42l13.276,4.52&#10;&#9;&#9;&#9;&#9;C358.979,369.633,360.304,364.598,360.056,364.526z"/>
        </g>
        <path style="fill:#FFA45B;" d="M355.863,368.572c-3.751,11.689-4.502,28.108-4.95,40.19c-0.564,15.212-2.706,24.069-2.706,24.069&#10;&#9;&#9;&#9;s76.385,0,85.335,0c-2.563-11.547-4.016-14.904-4.016-37.923c0-7.753-0.397-11.156-0.967-15.288c0,0-4.072-6.582-8.234-11.048&#10;&#9;&#9;&#9;c-22.995,4.774-48.157-1.981-55.069-4.909C362.418,363.663,355.863,368.572,355.863,368.572z"/>
        <path style="fill:none;stroke:#FFA45B;stroke-width:2;stroke-miterlimit:10;" d="M364.398,369.633&#10;&#9;&#9;&#9;c1.901-14.691,5.558-30.193,5.558-30.193"/>
        <path style="fill:none;stroke:#FFA45B;stroke-width:2;stroke-miterlimit:10;" d="M419.809,377.315&#10;&#9;&#9;&#9;c0-13.997,4.593-29.422,4.593-29.422"/>
        <g>
          <path style="fill:#EF8943;" d="M407.626,387.468c4.264,0.273,10.856,0.375,15.128,0.305c-0.046,3.173-0.091,6.345-0.137,9.518&#10;&#9;&#9;&#9;&#9;c-0.004,0.298-0.01,0.603-0.115,0.881c-0.178,0.47-0.607,0.791-1.015,1.085c-1.706,1.229-3.413,2.458-5.119,3.686&#10;&#9;&#9;&#9;&#9;c-0.134,0.097-0.277,0.197-0.441,0.215c-0.198,0.022-0.386-0.077-0.56-0.173c-2.213-1.222-4.426-2.444-6.639-3.666&#10;&#9;&#9;&#9;&#9;c-0.106-0.059-0.216-0.12-0.29-0.217c-0.09-0.118-0.114-0.271-0.135-0.417c-0.461-3.241-0.688-6.515-0.676-9.788"/>
        </g>
        <g>
          <g>
            <path style="fill:#D6E3ED;" d="M410.383,314.668c0.76,10.211,0.23,20.28-2.449,30.206c-1.384,5.125-3.278,10.088-5.625,14.848&#10;&#9;&#9;&#9;&#9;&#9;c-2.094,4.247-4.471,8.427-5.67,13.043c-1.212,4.668-1.285,9.539-1.018,14.327c0.255,4.571,0.58,9.254,1.711,13.706&#10;&#9;&#9;&#9;&#9;&#9;c0.896,3.53,2.368,7.599,5.384,9.879c2.19,1.656,5.582,2.118,7.714,0.077c1.286-1.231,1.526-3.068,1.678-4.75&#10;&#9;&#9;&#9;&#9;&#9;c0.275-3.04,0.45-6.092,0.673-9.136c0.218-2.973,0.273-6.023,0.788-8.963c0.177-1.009,1.061-6.037,3.114-4.248&#10;&#9;&#9;&#9;&#9;&#9;c0.727,0.633,0.911,3.032,0.996,3.863c0.04,0.398,0.623,0.415,0.633,0c0.035-1.437-0.336-5.445-2.46-5.5&#10;&#9;&#9;&#9;&#9;&#9;c-2.493-0.065-3.045,5.521-3.231,7.066c-0.639,5.311-0.791,10.708-1.181,16.043c-0.242,3.305-1.317,6.653-5.327,6.208&#10;&#9;&#9;&#9;&#9;&#9;c-2.986-0.331-4.972-2.94-6.218-5.457c-2.467-4.983-2.973-10.644-3.402-16.104c-0.406-5.163-0.595-10.429,0.497-15.526&#10;&#9;&#9;&#9;&#9;&#9;c1.119-5.222,3.791-9.846,6.104-14.6c2.086-4.285,3.815-8.737,5.129-13.319c2.92-10.19,4.023-21.189,2.546-31.716&#10;&#9;&#9;&#9;&#9;&#9;C410.736,314.4,410.367,314.449,410.383,314.668L410.383,314.668z"/>
          </g>
        </g>
        <g>
          <g>
            <path style="fill:#D6E3ED;" d="M380.814,318c2.051,13.831-1.415,27.634,0.219,41.448c0.594,5.021,1.841,10.028,4.26,14.497&#10;&#9;&#9;&#9;&#9;&#9;c1.934,3.573,5.517,9.009,10.034,9.162c0.578,0.02,0.578-0.879,0-0.898c-3.145-0.104-5.842-3.53-7.537-5.92&#10;&#9;&#9;&#9;&#9;&#9;c-1.536-2.166-2.728-4.563-3.636-7.055c-1.757-4.825-2.465-9.984-2.638-15.096c-0.408-12.042,2.436-24.326-0.356-36.233&#10;&#9;&#9;&#9;&#9;&#9;C381.106,317.674,380.781,317.777,380.814,318L380.814,318z"/>
          </g>
        </g>
      </g>
      <g style="" transform="matrix(2.120213, 0, 0, 2.120213, -353.037542, -484.862861)">
        <g>
          <g transform="matrix(1, 0, 0, 1, -9.848798, 200.068652)">
            <path style="fill:#D7E9F4;" d="M327.435,92.922c0,0.672-0.545,1.217-1.217,1.217c-0.672,0-1.217-0.545-1.217-1.217&#10;&#9;&#9;&#9;&#9;&#9;c0-0.672,0.545-1.217,1.217-1.217C326.89,91.705,327.435,92.25,327.435,92.922z"/>
          </g>
          <g>
            <path style="fill:#D7E9F4;" d="M440.456,325.401c0,0.672-0.545,1.217-1.217,1.217c-0.672,0-1.217-0.545-1.217-1.217&#10;&#9;&#9;&#9;&#9;&#9;c0-0.672,0.545-1.217,1.217-1.217C439.911,324.184,440.456,324.729,440.456,325.401z"/>
          </g>
          <g style="" transform="matrix(-0.972617, 0, 0, 1.116798, 465.139808, -50.380254)">
            <path style="fill:#D7E9F4;" d="M135.62,288.265c-1.232,0-2.323-0.578-2.852-1.537c-0.129-0.235-0.044-0.529,0.191-0.658&#10;&#9;&#9;&#9;&#9;&#9;c0.234-0.132,0.528-0.043,0.659,0.19c0.398,0.723,1.304,1.13,2.313,1.019c1.007-0.103,1.814-0.68,2.057-1.468&#10;&#9;&#9;&#9;&#9;&#9;c0.082-0.267,0.122-0.559,0.163-0.867c0.072-0.527,0.145-1.071,0.439-1.577c0.9-1.545,2.816-1.381,4.506-1.233&#10;&#9;&#9;&#9;&#9;&#9;c1.539,0.133,2.993,0.259,3.589-0.753c0.223-0.378,0.269-0.86,0.318-1.37c0.026-0.273,0.053-0.546,0.104-0.812&#10;&#9;&#9;&#9;&#9;&#9;c0.205-1.072,1.048-2.082,2.107-1.897c0.264,0.044,0.442,0.294,0.398,0.559c-0.044,0.264-0.297,0.442-0.558,0.398&#10;&#9;&#9;&#9;&#9;&#9;c-0.447-0.085-0.882,0.532-0.995,1.123c-0.045,0.236-0.068,0.479-0.091,0.723c-0.057,0.593-0.116,1.206-0.448,1.77&#10;&#9;&#9;&#9;&#9;&#9;c-0.906,1.538-2.821,1.372-4.508,1.226c-1.536-0.132-2.993-0.259-3.584,0.756c-0.197,0.338-0.255,0.766-0.317,1.218&#10;&#9;&#9;&#9;&#9;&#9;c-0.045,0.334-0.092,0.68-0.197,1.022c-0.357,1.162-1.489,2.004-2.884,2.148C135.892,288.258,135.755,288.265,135.62,288.265z"/>
          </g>
          <g>
            <path style="fill:#D7E9F4;" d="M446.74,282.329c-1.141,0.465-2.369,0.342-3.22-0.346c-0.209-0.168-0.241-0.473-0.072-0.681&#10;&#9;&#9;&#9;&#9;&#9;c0.165-0.209,0.472-0.241,0.681-0.072c0.642,0.518,1.632,0.548,2.528,0.069c0.893-0.476,1.423-1.315,1.35-2.136&#10;&#9;&#9;&#9;&#9;&#9;c-0.025-0.278-0.099-0.563-0.176-0.866c-0.133-0.513-0.27-1.045-0.188-1.625c0.25-1.77,2.087-2.341,3.706-2.843&#10;&#9;&#9;&#9;&#9;&#9;c1.475-0.456,2.869-0.89,3.04-2.052c0.063-0.433-0.076-0.897-0.223-1.388c-0.078-0.263-0.157-0.526-0.21-0.792&#10;&#9;&#9;&#9;&#9;&#9;c-0.216-1.07,0.171-2.322,1.234-2.553c0.262-0.059,0.521,0.106,0.579,0.367c0.059,0.262-0.105,0.525-0.367,0.579&#10;&#9;&#9;&#9;&#9;&#9;c-0.434,0.093-0.614,0.826-0.496,1.415c0.047,0.236,0.119,0.471,0.189,0.705c0.171,0.57,0.348,1.16,0.254,1.806&#10;&#9;&#9;&#9;&#9;&#9;c-0.258,1.766-2.093,2.335-3.712,2.837c-1.475,0.457-2.87,0.89-3.034,2.053c-0.055,0.387,0.053,0.804,0.167,1.247&#10;&#9;&#9;&#9;&#9;&#9;c0.084,0.327,0.172,0.664,0.203,1.022c0.108,1.21-0.621,2.418-1.858,3.078C446.99,282.22,446.866,282.278,446.74,282.329z"/>
          </g>
          <g>
            <path style="fill:#D7E9F4;" d="M444.763,275.135c-0.837,0.904-2.001,1.313-3.064,1.049c-0.26-0.064-0.419-0.327-0.354-0.587&#10;&#9;&#9;&#9;&#9;&#9;c0.061-0.26,0.326-0.418,0.587-0.354c0.801,0.198,1.711-0.194,2.319-1.007c0.608-0.809,0.733-1.794,0.319-2.507&#10;&#9;&#9;&#9;&#9;&#9;c-0.14-0.242-0.328-0.468-0.526-0.71c-0.337-0.409-0.687-0.833-0.858-1.392c-0.523-1.709,0.9-3.005,2.155-4.144&#10;&#9;&#9;&#9;&#9;&#9;c1.143-1.038,2.222-2.02,1.886-3.146c-0.126-0.419-0.448-0.78-0.79-1.163c-0.182-0.205-0.365-0.41-0.526-0.628&#10;&#9;&#9;&#9;&#9;&#9;c-0.648-0.878-0.828-2.176,0.038-2.835c0.212-0.164,0.517-0.125,0.68,0.087c0.164,0.213,0.127,0.52-0.088,0.68&#10;&#9;&#9;&#9;&#9;&#9;c-0.353,0.268-0.207,1.008,0.15,1.492c0.143,0.194,0.307,0.377,0.469,0.559c0.396,0.444,0.806,0.903,0.994,1.529&#10;&#9;&#9;&#9;&#9;&#9;c0.513,1.709-0.908,3.002-2.162,4.141c-1.143,1.039-2.224,2.022-1.88,3.145c0.114,0.374,0.389,0.707,0.679,1.059&#10;&#9;&#9;&#9;&#9;&#9;c0.214,0.26,0.437,0.529,0.616,0.84c0.61,1.051,0.461,2.454-0.381,3.576C444.943,274.931,444.855,275.036,444.763,275.135z"/>
          </g>
          <g transform="matrix(1, 0, 0, 1, -208.533649, 32.567738)">
            <path style="fill:#D7E9F4;" d="M 668.73 259.241 C 668.712 259.241 668.694 259.24 668.676 259.238 C 668.41 259.209 668.218 258.969 668.247 258.703 C 668.277 258.426 668.261 258.132 668.244 257.821 C 668.216 257.29 668.185 256.742 668.379 256.19 C 668.973 254.503 670.886 254.306 672.573 254.131 C 674.109 253.972 675.561 253.823 675.956 252.717 C 676.104 252.305 676.058 251.824 676.01 251.314 C 675.984 251.04 675.96 250.766 675.96 250.495 C 675.96 249.403 676.601 248.259 677.673 248.235 C 677.921 248.247 678.163 248.441 678.169 248.709 C 678.175 248.977 677.963 249.199 677.695 249.205 C 677.243 249.215 676.929 249.893 676.929 250.496 C 676.929 250.737 676.953 250.981 676.975 251.224 C 677.031 251.817 677.088 252.43 676.868 253.044 C 676.267 254.725 674.357 254.922 672.671 255.095 C 671.134 255.254 669.683 255.404 669.292 256.511 C 669.162 256.881 669.185 257.311 669.211 257.767 C 669.229 258.104 669.248 258.452 669.209 258.808 C 669.183 259.057 668.973 259.241 668.73 259.241 Z"/>
          </g>
          <g transform="matrix(1, 0, 0, 1, 138.226549, 174.727908)">
            <path style="fill:#D7E9F4;" d="M285.599,87.669c-0.113-0.051-0.206-0.146-0.254-0.271c-0.46-1.226-0.345-2.372,0.316-3.142&#10;&#9;&#9;&#9;&#9;&#9;c0.564-0.657,1.426-0.922,2.367-0.725c0.663,0.139,1.327,0.04,1.776-0.264c0.315-0.213,0.509-0.513,0.576-0.892&#10;&#9;&#9;&#9;&#9;&#9;c0.053-0.297,0.064-0.635,0.075-0.992c0.015-0.468,0.03-0.952,0.144-1.402c0.199-0.787,0.84-1.391,1.759-1.656&#10;&#9;&#9;&#9;&#9;&#9;c1.136-0.328,2.414-0.059,3.182,0.671c0.194,0.184,0.201,0.491,0.017,0.685c-0.186,0.194-0.49,0.203-0.686,0.017&#10;&#9;&#9;&#9;&#9;&#9;c-0.518-0.493-1.44-0.675-2.245-0.442c-0.578,0.167-0.975,0.518-1.087,0.963c-0.089,0.348-0.102,0.759-0.115,1.195&#10;&#9;&#9;&#9;&#9;&#9;c-0.012,0.376-0.024,0.765-0.089,1.131c-0.113,0.638-0.454,1.165-0.987,1.526c-0.672,0.455-1.59,0.604-2.518,0.41&#10;&#9;&#9;&#9;&#9;&#9;c-0.585-0.122-1.107,0.026-1.434,0.407c-0.424,0.494-0.477,1.285-0.144,2.17c0.094,0.251-0.033,0.53-0.284,0.624&#10;&#9;&#9;&#9;&#9;&#9;C285.844,87.729,285.712,87.72,285.599,87.669z"/>
          </g>
          <g transform="matrix(1, 0, 0, 1, 271.75388, 40.883328)">
            <path style="fill:#D7E9F4;" d="M85.502,273.237c-0.108-0.043-0.201-0.125-0.256-0.238c-0.118-0.241-0.017-0.531,0.223-0.648&#10;&#9;&#9;&#9;&#9;&#9;c0.642-0.314,1.134-1.115,1.196-1.95c0.045-0.601-0.146-1.095-0.523-1.355c-0.296-0.204-0.677-0.359-1.08-0.524&#10;&#9;&#9;&#9;&#9;&#9;c-0.348-0.142-0.708-0.289-1.028-0.477c-0.559-0.328-0.934-0.832-1.086-1.457c-0.192-0.788-0.012-1.701,0.493-2.503&#10;&#9;&#9;&#9;&#9;&#9;c0.318-0.505,0.361-1.047,0.118-1.485c-0.317-0.57-1.04-0.895-1.985-0.891c-0.266-0.001-0.486-0.215-0.487-0.483&#10;&#9;&#9;&#9;&#9;&#9;c-0.001-0.268,0.216-0.485,0.483-0.487c1.31-0.004,2.343,0.502,2.836,1.391c0.419,0.757,0.367,1.658-0.146,2.471&#10;&#9;&#9;&#9;&#9;&#9;c-0.361,0.573-0.499,1.23-0.371,1.757c0.09,0.369,0.304,0.656,0.636,0.851c0.26,0.153,0.572,0.281,0.904,0.415&#10;&#9;&#9;&#9;&#9;&#9;c0.434,0.177,0.881,0.36,1.264,0.624c0.669,0.46,1.012,1.271,0.94,2.225c-0.088,1.18-0.786,2.285-1.738,2.75&#10;&#9;&#9;&#9;&#9;&#9;C85.766,273.285,85.624,273.286,85.502,273.237z"/>
          </g>
          <g>
            <path style="fill:#D7E9F4;" d="M 335.396 261.827 C 335.22 261.827 335.05 261.731 334.964 261.563 C 334.842 261.324 334.936 261.032 335.174 260.911 C 335.81 260.585 336.287 259.774 336.333 258.938 C 336.366 258.336 336.166 257.846 335.783 257.593 C 335.484 257.395 335.1 257.247 334.693 257.09 C 334.342 256.955 333.979 256.815 333.656 256.633 C 333.092 256.315 332.706 255.819 332.542 255.197 C 332.335 254.412 332.497 253.496 332.987 252.685 C 333.296 252.174 333.328 251.632 333.077 251.198 C 332.751 250.635 332.026 250.309 331.077 250.345 C 330.795 250.347 330.588 250.139 330.581 249.871 C 330.575 249.604 330.787 249.382 331.055 249.375 C 332.365 249.347 333.407 249.833 333.916 250.711 C 334.35 251.46 334.315 252.361 333.818 253.185 C 333.468 253.764 333.342 254.424 333.48 254.949 C 333.577 255.317 333.796 255.599 334.131 255.788 C 334.393 255.936 334.709 256.057 335.042 256.186 C 335.479 256.355 335.931 256.529 336.318 256.785 C 336.995 257.232 337.353 258.037 337.3 258.992 C 337.235 260.173 336.558 261.291 335.615 261.773 C 335.546 261.81 335.471 261.827 335.396 261.827 Z"/>
          </g>
        </g>
        <g>
          <g transform="matrix(1, 0, 0, 1, 244.702549, -19.008354)">
            <circle style="fill:#A7DBFC;" cx="218.344" cy="294.825" r="1.217"/>
          </g>
          <g>
            <path style="fill:#A7DBFC;" d="M415.013,272.197c0,0.672-0.545,1.217-1.217,1.217c-0.672,0-1.217-0.545-1.217-1.217&#10;&#9;&#9;&#9;&#9;&#9;c0-0.672,0.545-1.217,1.217-1.217C414.469,270.98,415.013,271.525,415.013,272.197z"/>
          </g>
          <g transform="matrix(1, 0, 0, 1, 42.138428, -12.221971)">
            <path style="fill:#A7DBFC;" d="M278.456,277.689c0.281,1.173-0.332,2.487-0.887,3.677c-0.653,1.4-1.269,2.721-0.52,3.626&#10;&#9;&#9;&#9;&#9;&#9;c0.251,0.302,0.633,0.504,1.037,0.716c0.298,0.157,0.605,0.318,0.891,0.534c0.97,0.734,1.372,2.087,1.028,3.447&#10;&#9;&#9;&#9;&#9;&#9;c-0.344,1.36-1.342,2.359-2.543,2.544c-0.266,0.041-0.511-0.167-0.553-0.405c-0.041-0.265,0.14-0.512,0.405-0.553&#10;&#9;&#9;&#9;&#9;&#9;c0.816-0.126,1.503-0.841,1.752-1.823c0.247-0.982-0.018-1.937-0.675-2.436c-0.221-0.168-0.481-0.305-0.756-0.45&#10;&#9;&#9;&#9;&#9;&#9;c-0.471-0.248-0.958-0.504-1.332-0.955c-1.14-1.378-0.328-3.118,0.387-4.655c0.654-1.4,1.27-2.72,0.525-3.629&#10;&#9;&#9;&#9;&#9;&#9;c-0.279-0.339-0.716-0.548-1.179-0.769c-0.247-0.118-0.494-0.237-0.726-0.375c-0.937-0.56-1.588-1.701-1.06-2.63&#10;&#9;&#9;&#9;&#9;&#9;c0.132-0.233,0.428-0.315,0.66-0.183c0.233,0.131,0.315,0.428,0.183,0.66c-0.221,0.392,0.198,1.011,0.715,1.32&#10;&#9;&#9;&#9;&#9;&#9;c0.206,0.123,0.427,0.228,0.646,0.333c0.538,0.257,1.094,0.522,1.508,1.028C278.218,277.021,278.375,277.349,278.456,277.689z"/>
          </g>
          <g transform="matrix(1, 0, 0, 1, -9.427004, 189.307925)">
            <path style="fill:#A7DBFC;" d="M 365.942 68.409 C 365.917 68.388 365.895 68.365 365.876 68.34 C 365.71 68.129 365.746 67.824 365.957 67.659 C 366.518 67.218 366.831 66.33 366.716 65.501 C 366.633 64.903 366.345 64.46 365.919 64.285 C 365.587 64.149 365.183 64.077 364.754 64.001 C 364.383 63.935 364 63.867 363.647 63.751 C 363.032 63.548 362.559 63.134 362.279 62.554 C 361.926 61.823 361.909 60.894 362.234 60.003 C 362.439 59.443 362.367 58.904 362.037 58.527 C 361.613 58.04 360.833 57.87 359.909 58.073 C 359.647 58.129 359.389 57.962 359.332 57.703 C 359.275 57.441 359.44 57.183 359.702 57.126 C 360.982 56.847 362.098 57.123 362.767 57.89 C 363.337 58.543 363.474 59.434 363.145 60.337 C 362.913 60.973 362.915 61.644 363.151 62.132 C 363.317 62.475 363.585 62.708 363.951 62.831 C 364.237 62.925 364.57 62.984 364.923 63.047 C 365.383 63.128 365.86 63.213 366.288 63.39 C 367.035 63.696 367.544 64.42 367.676 65.369 C 367.838 66.541 367.387 67.768 366.555 68.422 C 366.37 68.566 366.114 68.556 365.942 68.409 Z"/>
          </g>
          <g>
            <path style="fill:#A7DBFC;" d="M383.861,277.578c-0.015-0.028-0.028-0.058-0.038-0.088c-0.08-0.256,0.062-0.528,0.318-0.608&#10;&#9;&#9;&#9;&#9;&#9;c0.681-0.214,1.288-0.933,1.475-1.748c0.134-0.588,0.022-1.105-0.314-1.419c-0.262-0.245-0.615-0.456-0.989-0.678&#10;&#9;&#9;&#9;&#9;&#9;c-0.323-0.193-0.658-0.392-0.946-0.626c-0.503-0.408-0.798-0.963-0.855-1.605c-0.071-0.808,0.243-1.683,0.863-2.401&#10;&#9;&#9;&#9;&#9;&#9;c0.39-0.451,0.514-0.98,0.34-1.45c-0.223-0.605-0.893-1.041-1.829-1.179c-0.266-0.04-0.447-0.288-0.408-0.551&#10;&#9;&#9;&#9;&#9;&#9;c0.039-0.266,0.286-0.448,0.551-0.409c1.296,0.193,2.241,0.846,2.595,1.802c0.301,0.812,0.113,1.694-0.515,2.422&#10;&#9;&#9;&#9;&#9;&#9;c-0.443,0.512-0.678,1.14-0.631,1.681c0.033,0.379,0.201,0.693,0.5,0.937c0.234,0.189,0.524,0.363,0.832,0.546&#10;&#9;&#9;&#9;&#9;&#9;c0.401,0.239,0.817,0.487,1.155,0.805c0.59,0.551,0.809,1.408,0.596,2.342c-0.264,1.153-1.121,2.14-2.131,2.457&#10;&#9;&#9;&#9;&#9;&#9;C384.206,277.877,383.97,277.777,383.861,277.578z"/>
          </g>
          <g transform="matrix(-1.138098, 0, 0, 0.550468, 748.373668, 162.280032)" style="">
            <path style="fill:#A7DBFC;" d="M278.456,277.689c0.281,1.173-0.332,2.487-0.887,3.677c-0.653,1.4-1.269,2.721-0.52,3.626&#10;&#9;&#9;&#9;&#9;&#9;c0.251,0.302,0.633,0.504,1.037,0.716c0.298,0.157,0.605,0.318,0.891,0.534c0.97,0.734,1.372,2.087,1.028,3.447&#10;&#9;&#9;&#9;&#9;&#9;c-0.344,1.36-1.342,2.359-2.543,2.544c-0.266,0.041-0.511-0.167-0.553-0.405c-0.041-0.265,0.14-0.512,0.405-0.553&#10;&#9;&#9;&#9;&#9;&#9;c0.816-0.126,1.503-0.841,1.752-1.823c0.247-0.982-0.018-1.937-0.675-2.436c-0.221-0.168-0.481-0.305-0.756-0.45&#10;&#9;&#9;&#9;&#9;&#9;c-0.471-0.248-0.958-0.504-1.332-0.955c-1.14-1.378-0.328-3.118,0.387-4.655c0.654-1.4,1.27-2.72,0.525-3.629&#10;&#9;&#9;&#9;&#9;&#9;c-0.279-0.339-0.716-0.548-1.179-0.769c-0.247-0.118-0.494-0.237-0.726-0.375c-0.937-0.56-1.588-1.701-1.06-2.63&#10;&#9;&#9;&#9;&#9;&#9;c0.132-0.233,0.428-0.315,0.66-0.183c0.233,0.131,0.315,0.428,0.183,0.66c-0.221,0.392,0.198,1.011,0.715,1.32&#10;&#9;&#9;&#9;&#9;&#9;c0.206,0.123,0.427,0.228,0.646,0.333c0.538,0.257,1.094,0.522,1.508,1.028C278.218,277.021,278.375,277.349,278.456,277.689z"/>
          </g>
        </g>
      </g>
    </g>
  </g>
</svg>