<?xml version="1.0" encoding="utf-8"?>
<svg version="1.1" id="svg2" width="1000px" height="1000px" viewBox="27.902 41.701 625.727 577.479" xmlns="http://www.w3.org/2000/svg">
  <g id="g8" transform="matrix(1.3333333,0,0,-1.3333333,0,666.66667)">
    <g id="g10" transform="scale(0.1)">
      <path d="m 307.488,1654.93 142.09,-149.62 42.688,182.82 z" style="fill:#f25150;fill-opacity:1;fill-rule:nonzero;stroke:none" id="path14"/>
      <path d="m 674.379,4142.98 142.094,-149.62 42.683,182.82 z" style="fill:#4bab79;fill-opacity:1;fill-rule:nonzero;stroke:none" id="path16"/>
      <path d="m 4481.84,1828.56 142.1,-149.62 42.68,182.82 z" style="fill:#4bab79;fill-opacity:1;fill-rule:nonzero;stroke:none" id="path18"/>
      <path d="m 4647.71,2560.78 c 0,-33.55 27.19,-60.74 60.73,-60.74 33.55,0 60.74,27.19 60.74,60.74 0,33.54 -27.19,60.73 -60.74,60.73 -33.54,0 -60.73,-27.19 -60.73,-60.73" style="fill:#4bab79;fill-opacity:1;fill-rule:nonzero;stroke:none" id="path20"/>
      <path d="m 2603.19,4521.08 c 0,-33.54 27.19,-60.74 60.74,-60.74 33.54,0 60.73,27.2 60.73,60.74 0,33.55 -27.19,60.74 -60.73,60.74 -33.55,0 -60.74,-27.19 -60.74,-60.74" style="fill:#f25150;fill-opacity:1;fill-rule:nonzero;stroke:none" id="path22"/>
      <path d="m 4205.57,4108.6 c 0,-33.55 27.19,-60.74 60.74,-60.74 33.54,0 60.73,27.19 60.73,60.74 0,33.54 -27.19,60.73 -60.73,60.73 -33.55,0 -60.74,-27.19 -60.74,-60.73" style="fill:#51c4bd;fill-opacity:1;fill-rule:nonzero;stroke:none" id="path24"/>
      <path d="m 535.102,1974.75 c 0,-33.54 27.195,-60.73 60.738,-60.73 33.543,0 60.734,27.19 60.734,60.73 0,33.55 -27.191,60.74 -60.734,60.74 -33.543,0 -60.738,-27.19 -60.738,-60.74" style="fill:#51c4bd;fill-opacity:1;fill-rule:nonzero;stroke:none" id="path26"/>
      <path d="m 2663.93,1789.91 c 0,-13.09 10.6,-23.69 23.68,-23.69 13.09,0 23.69,10.6 23.69,23.69 0,13.08 -10.6,23.68 -23.69,23.68 -13.08,0 -23.68,-10.6 -23.68,-23.68" style="fill:#4bab79;fill-opacity:1;fill-rule:nonzero;stroke:none" id="path28"/>
      <path d="m 3035.23,4327.45 c 0,-13.09 10.61,-23.7 23.69,-23.7 13.08,0 23.69,10.61 23.69,23.7 0,13.08 -10.61,23.68 -23.69,23.68 -13.08,0 -23.69,-10.6 -23.69,-23.68" style="fill:#4bab79;fill-opacity:1;fill-rule:nonzero;stroke:none" id="path30"/>
      <path d="m 2554.44,4256.14 c 0,-13.08 10.6,-23.69 23.68,-23.69 13.09,0 23.69,10.61 23.69,23.69 0,13.08 -10.6,23.69 -23.69,23.69 -13.08,0 -23.68,-10.61 -23.68,-23.69" style="fill:#4bab79;fill-opacity:1;fill-rule:nonzero;stroke:none" id="path32"/>
      <path d="m 4308.1,3407.29 c 0,-13.08 10.61,-23.68 23.69,-23.68 13.09,0 23.69,10.6 23.69,23.68 0,13.09 -10.6,23.69 -23.69,23.69 -13.08,0 -23.69,-10.6 -23.69,-23.69" style="fill:#4bab79;fill-opacity:1;fill-rule:nonzero;stroke:none" id="path34"/>
      <path d="m 2304.9,3736.98 c 0,-22.89 18.56,-41.45 41.45,-41.45 22.9,0 41.46,18.56 41.46,41.45 0,22.89 -18.56,41.45 -41.46,41.45 -22.89,0 -41.45,-18.56 -41.45,-41.45" style="fill:#ffffff;fill-opacity:1;fill-rule:nonzero;stroke:none" id="path36"/>
      <path d="m 2420.71,3814.52 c 0,-16.12 13.07,-29.19 29.19,-29.19 16.12,0 29.19,13.07 29.19,29.19 0,16.12 -13.07,29.19 -29.19,29.19 -16.12,0 -29.19,-13.07 -29.19,-29.19" style="fill:#ffffff;fill-opacity:1;fill-rule:nonzero;stroke:none" id="path38"/>
      <path d="m 2099.18,3718.98 c 0,-41.85 33.93,-75.78 75.79,-75.78 41.85,0 75.78,33.93 75.78,75.78 0,41.85 -33.93,75.78 -75.78,75.78 -41.86,0 -75.79,-33.93 -75.79,-75.78" style="fill:#ffffff;fill-opacity:1;fill-rule:nonzero;stroke:none" id="path40"/>
      <path d="m 2088.72,4061.14 c 35.36,19.33 59.36,56.86 59.36,100 0,62.91 -51,113.91 -113.91,113.91 -18.36,0 -35.64,-4.44 -51,-12.16 0.42,4 0.67,8.05 0.67,12.16 0,62.91 -51,113.91 -113.91,113.91 -45.35,0 -84.39,-26.57 -102.72,-64.92 -11.36,50.92 -56.74,89.01 -111.09,89.01 -62.84,0 -113.79,-50.89 -113.9,-113.7 -20.89,25.3 -52.5,41.42 -87.87,41.42 -62.91,0 -113.91,-50.99 -113.91,-113.9 0,-44.8 25.93,-83.45 63.55,-102.05 -7.55,1.57 -15.35,2.41 -23.36,2.41 -62.91,0 -113.91,-51 -113.91,-113.91 0,-62.9 51,-113.9 113.91,-113.9 11.47,0 22.53,1.73 32.97,4.89 -7.59,-15.26 -11.96,-32.4 -11.96,-50.59 0,-62.91 50.99,-113.91 113.9,-113.91 20.04,0 38.85,5.21 55.2,14.3 4.73,-58.56 53.66,-104.64 113.44,-104.64 59.82,0 108.76,46.12 113.45,104.73 23.43,-29.64 59.62,-48.72 100.34,-48.72 70.66,0 127.94,57.28 127.94,127.94 0,6.35 -0.62,12.53 -1.51,18.63 17.91,-11.74 39.3,-18.63 62.33,-18.63 62.91,0 113.9,51 113.9,113.91 0,62.24 -49.93,112.73 -111.91,113.81" style="fill:#ffffff;fill-opacity:1;fill-rule:nonzero;stroke:none" id="path42"/>
      <path d="m 1695.17,4049.16 574.48,-66.4 -369.45,444.91 -574.47,66.4 369.44,-444.91" style="fill:#230f23;fill-opacity:1;fill-rule:nonzero;stroke:none" id="path44"/>
      <path d="m 1502.31,4047.17 c -40.74,-75.21 253.26,-234.47 294.01,-159.25 l 147.09,271.56 -294,159.25 -147.1,-271.56" style="fill:#230f23;fill-opacity:1;fill-rule:nonzero;stroke:none" id="path46"/>
      <path d="m 1549.17,4224.98 146,-175.82 355.44,-41.08" style="fill:none;stroke:#f25150;stroke-width:10.8286;stroke-linecap:butt;stroke-linejoin:miter;stroke-miterlimit:10;stroke-dasharray:none;stroke-opacity:1" id="path48"/>
      <path d="m 1325.73,4494.07 c 0,0 -320.45,4.48 12.91,-471.76" style="fill:none;stroke:#230f23;stroke-width:9.27404;stroke-linecap:butt;stroke-linejoin:miter;stroke-miterlimit:10;stroke-dasharray:none;stroke-opacity:1" id="path50"/>
      <path d="m 1339.16,3947.26 70.67,20.49 c 0,0 -45.57,95.87 -88.28,79.4 -42.7,-16.47 17.61,-99.89 17.61,-99.89" style="fill:#230f23;fill-opacity:1;fill-rule:nonzero;stroke:none" id="path52"/>
      <path d="m 3394.96,3672.65 h 119.3 c 19.21,0 34.78,15.57 34.78,34.78 v 119.3 c 0,19.21 -15.57,34.78 -34.78,34.78 h -119.3 c -19.21,0 -34.78,-15.57 -34.78,-34.78 v -119.3 c 0,-19.21 15.57,-34.78 34.78,-34.78" style="fill:#51c4bd;fill-opacity:1;fill-rule:nonzero;stroke:none" id="path54"/>
      <path d="m 3340.19,3838.41 94.42,-99.22 182.51,182.34" style="fill:none;stroke:#ffffff;stroke-width:16.9966;stroke-linecap:butt;stroke-linejoin:miter;stroke-miterlimit:10;stroke-dasharray:none;stroke-opacity:1" id="path56"/>
      <path d="m 3394.96,3407.29 h 119.3 c 19.21,0 34.78,15.57 34.78,34.78 v 119.3 c 0,19.21 -15.57,34.78 -34.78,34.78 h -119.3 c -19.21,0 -34.78,-15.57 -34.78,-34.78 v -119.3 c 0,-19.21 15.57,-34.78 34.78,-34.78" style="fill:#51c4bd;fill-opacity:1;fill-rule:nonzero;stroke:none" id="path58"/>
      <path d="m 3340.19,3573.05 94.42,-99.22 182.51,182.34" style="fill:none;stroke:#ffffff;stroke-width:16.9966;stroke-linecap:butt;stroke-linejoin:miter;stroke-miterlimit:10;stroke-dasharray:none;stroke-opacity:1" id="path60"/>
      <path d="m 3361.46,777.371 h -781.81 c -23.6,0 -42.73,19.129 -42.73,42.731 v 7.66 c 0,23.597 19.13,42.73 42.73,42.73 h 781.81 c 23.6,0 42.73,-19.133 42.73,-42.73 v -7.66 c 0,-23.602 -19.13,-42.731 -42.73,-42.731" style="fill:#230f23;fill-opacity:1;fill-rule:nonzero;stroke:none" id="path62"/>
      <path d="m 2960.82,809.41 h -143.01 v 994.56 h 143.01 V 809.41" style="fill:#230f23;fill-opacity:1;fill-rule:nonzero;stroke:none" id="path64"/>
      <path d="m 3126.12,680.469 c 0,-53.52 43.39,-96.91 96.91,-96.91 53.52,0 96.9,43.39 96.9,96.91 0,53.519 -43.38,96.902 -96.9,96.902 -53.52,0 -96.91,-43.383 -96.91,-96.902" style="fill:#230f23;fill-opacity:1;fill-rule:nonzero;stroke:none" id="path66"/>
      <path d="m 2792.41,680.469 c 0,-53.52 43.38,-96.91 96.9,-96.91 53.52,0 96.91,43.39 96.91,96.91 0,53.519 -43.39,96.902 -96.91,96.902 -53.52,0 -96.9,-43.383 -96.9,-96.902" style="fill:#230f23;fill-opacity:1;fill-rule:nonzero;stroke:none" id="path68"/>
      <path d="m 2458.69,680.469 c 0,-53.52 43.39,-96.91 96.91,-96.91 53.52,0 96.9,43.39 96.9,96.91 0,53.519 -43.38,96.902 -96.9,96.902 -53.52,0 -96.91,-43.383 -96.91,-96.902" style="fill:#230f23;fill-opacity:1;fill-rule:nonzero;stroke:none" id="path70"/>
      <path d="m 3296.59,1696.37 h -814.55 c -59.43,0 -107.6,48.18 -107.6,107.6 v 0 c 0,59.43 48.17,107.6 107.6,107.6 h 814.55 c 59.42,0 107.6,-48.17 107.6,-107.6 v 0 c 0,-59.42 -48.18,-107.6 -107.6,-107.6" style="fill:#ffffff;fill-opacity:1;fill-rule:nonzero;stroke:none" id="path72"/>
      <path d="M 2805.59,864.371 2675.94,1346.2 c 0,0 -140.05,34.21 -324.26,-47.69 l 97.72,-430.772 c 0,0 30.32,20.262 58.4,2.481 28.07,-17.778 139.94,-188.41 297.79,-5.848" style="fill:#f6877a;fill-opacity:1;fill-rule:nonzero;stroke:none" id="path74"/>
      <path d="m 2784.82,895.801 c 0,0 125.36,-58.063 150.75,-261.403 22.81,-99.109 -717.05,-152.207 -878.34,-80.226 0,0 -44.69,89.769 35.62,139.039 50.26,30.828 245.3,21.848 340.04,157.918 45.73,65.672 130,-17.328 171.59,-4.91 41.59,12.422 180.34,49.582 180.34,49.582" style="fill:#ffffff;fill-opacity:1;fill-rule:nonzero;stroke:none" id="path76"/>
      <path d="m 1425.21,1612.28 c 0,0 511.21,503.27 1148.36,1103.49 l 321.31,-369.97 c 0,0 -873.37,-1080.97 -1153.92,-1311.73 l -315.75,578.21" style="fill: rgb(76, 175, 110); fill-opacity: 1; fill-rule: nonzero; stroke: none;" id="path78"/>
      <g id="g80">
        <g id="g82" clip-path="url(#clipPath86)">
          <path d="m 1797.67,2287.07 c 0,0 -379.7,-34.35 -337.93,-216.95 41.76,-182.61 231.64,-32.98 292.23,-241.14 60.59,-208.17 363.5,-143.4 259.29,43.41 -104.2,186.81 -53.52,234.41 118.26,216.66 178.29,-18.43 324.17,402.56 -331.85,198.02 z" style="fill:none;stroke:#f9b15a;stroke-width:11.918;stroke-linecap:butt;stroke-linejoin:miter;stroke-miterlimit:10;stroke-dasharray:none;stroke-opacity:1" id="path88"/>
          <path d="m 2496.84,2854.26 c 0,0 263.59,275.44 112.09,385.62 -151.49,110.18 -196.25,-127.39 -378.73,-10.33 -182.49,117.07 -368.21,-130.83 -166.89,-203.14 201.32,-72.3 194.41,-141.49 53.26,-241.01 -146.48,-103.29 20.27,-516.46 380.27,68.86 z" style="fill:none;stroke:#f9b15a;stroke-width:11.918;stroke-linecap:butt;stroke-linejoin:miter;stroke-miterlimit:10;stroke-dasharray:none;stroke-opacity:1" id="path90"/>
          <path d="m 2885.88,2161.17 c 0,0 263.58,275.44 112.09,385.62 -151.49,110.17 -196.25,-127.4 -378.74,-10.33 -182.48,117.06 -368.2,-130.84 -166.88,-203.14 201.31,-72.31 194.4,-141.49 53.26,-241.02 -146.48,-103.29 20.27,-516.45 380.27,68.87 z" style="fill:none;stroke:#f9b15a;stroke-width:11.918;stroke-linecap:butt;stroke-linejoin:miter;stroke-miterlimit:10;stroke-dasharray:none;stroke-opacity:1" id="path92"/>
          <path d="m 1919.17,1089.92 c 0,0 310.79,324.78 132.17,454.69 -178.63,129.91 -231.41,-150.21 -446.57,-12.18 -215.16,138.03 -434.15,-154.27 -196.77,-239.52 237.37,-85.26 229.22,-166.83 62.8,-284.18 -172.72,-121.789 23.9,-608.96 448.37,81.19 z" style="fill:none;stroke:#f9b15a;stroke-width:11.918;stroke-linecap:butt;stroke-linejoin:miter;stroke-miterlimit:10;stroke-dasharray:none;stroke-opacity:1" id="path94"/>
        </g>
      </g>
      <path d="m 1461.92,1257.01 c 87.19,-159.67 212.12,-259.479 279.04,-222.94 66.92,36.54 50.48,195.6 -36.71,355.27 -87.19,159.67 -212.12,259.49 -279.04,222.94 -66.92,-36.54 -50.49,-195.6 36.71,-355.27" style="fill:#230f23;fill-opacity:1;fill-rule:nonzero;stroke:none" id="path96"/>
      <path d="m 1388.07,996.32 362.93,290.1 c 0,0 -22.96,132.25 -161.46,258.97 l -326.17,-243.18 c 0,0 23.51,-18.98 18.79,-49.56 -4.72,-30.58 -108.68,-189.6 105.91,-256.33" style="fill:#f6877a;fill-opacity:1;fill-rule:nonzero;stroke:none" id="path98"/>
      <path d="m 1388.07,996.32 c 0,0 -22.14,-126.73 -198.98,-198.39 0,0 -202.52,665 -283.082,770.94 0,0 70.035,61.76 133.642,1.34 39.8,-37.81 78.56,-215.44 223.72,-268 70.07,-25.37 15.63,-121.12 36.79,-155.55 21.16,-34.44 87.91,-150.34 87.91,-150.34" style="fill:#ffffff;fill-opacity:1;fill-rule:nonzero;stroke:none" id="path100"/>
      <path d="m 966.184,1153.52 c 78.166,-212.891 177.966,-372.09 222.906,-355.59 44.94,16.5 17.99,202.46 -60.18,415.35 -78.17,212.89 -177.969,372.09 -222.902,355.59 -44.938,-16.5 -17.996,-202.46 60.176,-415.35" style="fill:#f25150;fill-opacity:1;fill-rule:nonzero;stroke:none" id="path102"/>
      <path d="m 1500.2,1478.78 89.34,66.61 c 0,0 139.01,-119.75 161.46,-258.97 l -66.16,-52.88 c 0,0 -44.02,150.94 -184.64,245.24" style="fill:#f25150;fill-opacity:1;fill-rule:nonzero;stroke:none" id="path104"/>
      <path d="m 3107.55,2699.08 c 0,0 228.5,-248.9 232.58,-485.56 4.08,-236.66 -216.65,-301.95 -293.98,-301.95 -77.33,0 -366.72,0 -366.72,0 0,0 139.06,-563.09 159.14,-873.19 0,0 -253.3,-146.892 -551.17,0 0,0 -191.77,881.35 -155.05,1060.89 36.72,179.53 629.77,297.86 629.77,297.86 l -188.55,318.64 533.98,-16.69" style="fill: rgb(76, 175, 110); fill-opacity: 1; fill-rule: nonzero; stroke: none;" id="path106"/>
      <g id="g108">
        <g id="g110" clip-path="url(#clipPath114)">
          <path d="m 2878.43,1733.9 c 0,0 263.59,275.45 112.09,385.62 -151.49,110.18 -196.25,-127.39 -378.73,-10.33 -182.49,117.07 -368.21,-130.83 -166.89,-203.14 201.32,-72.3 194.41,-141.48 53.27,-241.01 -146.49,-103.29 20.26,-516.46 380.26,68.86 z" style="fill:none;stroke:#f9b15a;stroke-width:11.918;stroke-linecap:butt;stroke-linejoin:miter;stroke-miterlimit:10;stroke-dasharray:none;stroke-opacity:1" id="path116"/>
          <path d="m 3312.75,2572.51 c 0,0 263.59,275.45 112.09,385.63 -151.49,110.17 -196.25,-127.4 -378.73,-10.33 -182.48,117.06 -368.21,-130.84 -166.89,-203.14 201.32,-72.31 194.41,-141.49 53.27,-241.02 -146.49,-103.29 20.27,-516.46 380.26,68.86 z" style="fill:none;stroke:#f9b15a;stroke-width:11.918;stroke-linecap:butt;stroke-linejoin:miter;stroke-miterlimit:10;stroke-dasharray:none;stroke-opacity:1" id="path118"/>
          <path d="m 3701.79,1879.42 c 0,0 263.59,275.44 112.09,385.62 -151.49,110.18 -196.25,-127.39 -378.73,-10.33 -182.49,117.07 -368.21,-130.83 -166.89,-203.14 201.32,-72.3 194.41,-141.49 53.26,-241.01 -146.48,-103.29 20.27,-516.46 380.27,68.86 z" style="fill:none;stroke:#f9b15a;stroke-width:11.918;stroke-linecap:butt;stroke-linejoin:miter;stroke-miterlimit:10;stroke-dasharray:none;stroke-opacity:1" id="path120"/>
          <path d="m 2735.08,808.18 c 0,0 310.8,324.77 132.17,454.68 -178.63,129.91 -231.4,-150.21 -446.57,-12.18 -215.16,138.03 -434.14,-154.26 -196.77,-239.52 237.37,-85.25 229.22,-166.828 62.8,-284.18 -172.72,-121.789 23.9,-608.949 448.37,81.2 z" style="fill:none;stroke:#f9b15a;stroke-width:11.918;stroke-linecap:butt;stroke-linejoin:miter;stroke-miterlimit:10;stroke-dasharray:none;stroke-opacity:1" id="path122"/>
        </g>
      </g>
      <path d="m 2229.35,1323.18 c -53.07,274.18 -120.05,663.39 -97,776.09 36.72,179.53 629.77,297.86 629.77,297.86" style="fill:none;stroke:#ffffff;stroke-width:11.918;stroke-linecap:butt;stroke-linejoin:miter;stroke-miterlimit:10;stroke-dasharray:none;stroke-opacity:1" id="path124"/>
      <path d="m 3046.1,3338.65 c 244.12,-93.13 359.17,-266.71 347.78,-414.67 -4.83,-62.85 -23.01,-154.78 -42.33,-239.77 -28.94,-127.31 -142.4,-217.45 -272.97,-217.45 h -32.48 l -130.51,603.46 c 29.21,116.3 60.15,229.37 130.51,268.43" style="fill:#ffffff;fill-opacity:1;fill-rule:nonzero;stroke:none" id="path126"/>
      <path d="m 2544.67,3372.66 c 0,0 -346.41,-121.74 -762.56,-525.77 l 427.72,-56.67 371.83,220.59 -36.99,361.85" style="fill:#ffffff;fill-opacity:1;fill-rule:nonzero;stroke:none" id="path128"/>
      <path d="m 2594.89,3388.18 c 0,0 -51.53,-4.48 -82.78,-37.96 -31.26,-33.49 -162.53,-270.55 -144.67,-326.36 17.86,-55.82 206.13,-308.09 206.13,-308.09 h 351.12 c 0,0 -52.76,522.41 121.41,622.88 l -268.4,93.76 -182.81,-44.23" style="fill:#ffffff;fill-opacity:1;fill-rule:nonzero;stroke:none" id="path130"/>
      <g id="g132">
        <g id="g134" clip-path="url(#clipPath138)">
          <path d="m 2547.69,3364.65 c 0,-103.04 83.52,-186.56 186.56,-186.56 103.04,0 186.57,83.52 186.57,186.56 0,103.04 -83.53,186.57 -186.57,186.57 -103.04,0 -186.56,-83.53 -186.56,-186.57 z" style="fill:none;stroke:#51c4bd;stroke-width:11.3878;stroke-linecap:butt;stroke-linejoin:miter;stroke-miterlimit:10;stroke-dasharray:none;stroke-opacity:1" id="path140"/>
        </g>
      </g>
      <path d="m 2591.39,3473.21 c 0,0 6.75,-175.9 50.45,-201.01 43.71,-25.12 123.34,1.58 123.34,1.58 l -12.5,186.06 -161.29,13.37" style="fill:#f25150;fill-opacity:1;fill-rule:nonzero;stroke:none" id="path142"/>
      <path d="m 2779.08,3881.2 c -67.41,24.57 -174.42,26.95 -212.7,-60.97 -38.29,-87.92 -76.23,-290.17 0,-334.66 77.45,-45.21 175.83,-36.87 236.81,73.74 60.97,110.61 127.62,266.59 -24.11,321.89" style="fill:#f6877a;fill-opacity:1;fill-rule:nonzero;stroke:none" id="path144"/>
      <path d="m 2791.38,3656.18 c 0,0 14.71,84.12 57.34,177.05 0,0 81.1,-19.1 99.68,-104.58 18.58,-85.48 -40.2,-165.02 -152.03,-180.99 0,0 53.86,101.38 54.18,143.79 -46.64,-28.04 -59.17,-35.27 -59.17,-35.27" style="fill:#230f23;fill-opacity:1;fill-rule:nonzero;stroke:none" id="path146"/>
      <path d="m 2817.91,3657.6 c 0,0 42.04,69.31 70.59,20.29 25.32,-43.47 -28.71,-108.83 -92.13,-110.03 l 21.54,89.74" style="fill:#f6877a;fill-opacity:1;fill-rule:nonzero;stroke:none" id="path148"/>
      <path d="m 2749.19,3690.44 c 0,0 104.72,15.41 120.36,74.06 15.64,58.65 -58.65,191.59 -222.87,152.49 -164.21,-39.1 -80.86,-179.07 -80.86,-179.07 0,0 18.3,48 65.22,71.83 0,0 -25.97,-40.28 19.55,-89.56 0,0 -1.82,61.45 46.4,87.07 0,0 -11.41,-70.13 14.76,-100.1 0,0 18.45,63.5 68.52,73.78 l -31.08,-90.5" style="fill:#230f23;fill-opacity:1;fill-rule:nonzero;stroke:none" id="path150"/>
      <path d="m 3143.84,3903.11 c 0,-91.75 -74.38,-166.13 -166.13,-166.13 -91.75,0 -166.13,74.38 -166.13,166.13 0,91.75 74.38,166.12 166.13,166.12 91.75,0 166.13,-74.37 166.13,-166.12" style="fill:#230f23;fill-opacity:1;fill-rule:nonzero;stroke:none" id="path152"/>
      <path d="m 2956.42,4094.36 c 0,0 219.77,-6.43 172.9,-235.86" style="fill:none;stroke:#230f23;stroke-width:12.9752;stroke-linecap:butt;stroke-linejoin:miter;stroke-miterlimit:10;stroke-dasharray:none;stroke-opacity:1" id="path154"/>
      <path d="m 2652.11,3656.52 c 0,0 -11.95,-16.46 -37.16,-9.61 0,0 -12.04,-18.37 13.17,-25.01 25.22,-6.64 23.99,34.62 23.99,34.62" style="fill:#f25150;fill-opacity:1;fill-rule:nonzero;stroke:none" id="path156"/>
      <path d="m 2685.02,3657.6 c 0,0 21.67,27.1 45.04,19.5 10.71,-3.48 25.63,-11.71 35.12,-35.71 0,0 -9.76,-24.13 -47.59,-18.69 -31.05,4.46 -32.57,34.9 -32.57,34.9" style="fill:#ffffff;fill-opacity:1;fill-rule:nonzero;stroke:none" id="path158"/>
      <path d="m 2685.02,3657.6 c 0,0 20.82,23.66 45.04,19.5 31.27,-5.36 28.94,-41.65 47.69,-34.87" style="fill:none;stroke:#230f23;stroke-width:10.0924;stroke-linecap:round;stroke-linejoin:miter;stroke-miterlimit:10;stroke-dasharray:none;stroke-opacity:1" id="path160"/>
      <path d="m 2726.51,3653.31 c -3.51,-13.7 -11.96,-23.36 -18.88,-21.59 -6.92,1.77 -9.68,14.31 -6.18,28 3.51,13.7 11.96,23.37 18.88,21.6 6.91,-1.77 9.68,-14.31 6.18,-28.01" style="fill:#230f23;fill-opacity:1;fill-rule:nonzero;stroke:none" id="path162"/>
      <path d="m 2734.25,3653.25 c 0,-6.16 -4.99,-11.16 -11.16,-11.16 -6.17,0 -11.16,5 -11.16,11.16 0,6.17 4.99,11.16 11.16,11.16 6.17,0 11.16,-4.99 11.16,-11.16" style="fill:#ffffff;fill-opacity:1;fill-rule:nonzero;stroke:none" id="path164"/>
      <path d="m 2623.57,3675.68 c 0,0 -1.33,34.68 -24.63,42.45 -10.69,3.57 -27.58,5.81 -49.48,-7.85 0,0 -6.48,-25.21 27.17,-43.32 27.63,-14.86 46.94,8.72 46.94,8.72" style="fill:#ffffff;fill-opacity:1;fill-rule:nonzero;stroke:none" id="path166"/>
      <path d="m 2623.57,3675.68 c 0,0 -2.69,31.41 -24.63,42.45 -28.34,14.27 -48.03,-16.3 -59.09,0.29" style="fill:none;stroke:#230f23;stroke-width:10.0924;stroke-linecap:round;stroke-linejoin:miter;stroke-miterlimit:10;stroke-dasharray:none;stroke-opacity:1" id="path168"/>
      <path d="m 2564.03,3706.48 c -5.32,-13.1 -4.27,-25.9 2.35,-28.59 6.62,-2.69 16.3,5.75 21.62,18.85 5.32,13.1 4.26,25.9 -2.35,28.59 -6.62,2.68 -16.3,-5.75 -21.62,-18.85" style="fill:#230f23;fill-opacity:1;fill-rule:nonzero;stroke:none" id="path170"/>
      <path d="m 2575.81,3702.06 c -3.67,-4.96 -2.62,-11.95 2.34,-15.61 4.96,-3.67 11.95,-2.62 15.61,2.34 3.67,4.96 2.62,11.95 -2.34,15.62 -4.96,3.66 -11.95,2.61 -15.61,-2.35" style="fill:#ffffff;fill-opacity:1;fill-rule:nonzero;stroke:none" id="path172"/>
      <path d="m 2762.83,3575.32 c 0,-17.37 -14.08,-31.45 -31.45,-31.45 -17.37,0 -31.45,14.08 -31.45,31.45 0,17.37 14.08,31.45 31.45,31.45 17.37,0 31.45,-14.08 31.45,-31.45" style="fill:#f25150;fill-opacity:1;fill-rule:nonzero;stroke:none" id="path174"/>
      <path d="m 2581.71,3628.35 c 0,-15.55 -12.61,-28.16 -28.16,-28.16 -15.56,0 -28.16,12.61 -28.16,28.16 0,15.56 12.6,28.17 28.16,28.17 15.55,0 28.16,-12.61 28.16,-28.17" style="fill:#f25150;fill-opacity:1;fill-rule:nonzero;stroke:none" id="path176"/>
      <path d="m 2582.67,3580.3 c 0,0 37.76,-22.42 96.76,0" style="fill:none;stroke:#230f23;stroke-width:10.0924;stroke-linecap:round;stroke-linejoin:miter;stroke-miterlimit:10;stroke-dasharray:none;stroke-opacity:1" id="path178"/>
      <path d="m 2679.43,3595.26 c 0,0 -5.79,-14.35 9.63,-27.4" style="fill:none;stroke:#230f23;stroke-width:10.0924;stroke-linecap:round;stroke-linejoin:miter;stroke-miterlimit:10;stroke-dasharray:none;stroke-opacity:1" id="path180"/>
      <path d="m 2655.19,3388.18 c 0,0 -28.96,34.47 -23.44,96.53 5.51,62.06 93.77,63.44 93.77,63.44 0,0 66.2,58.17 220.65,-17.81 l -290.98,-142.16" style="fill:#f6877a;fill-opacity:1;fill-rule:nonzero;stroke:none" id="path182"/>
      <path d="m 2712.16,3530 c 0,0 22.76,45.49 69.02,50.73 0,0 38,89.45 43.4,99.7 11.43,21.72 18.98,20.65 27.02,21.63 8.62,1.05 15.44,-7.16 12.94,-15.47 l -41.42,-137.88 -68.12,-44.79 -42.84,26.08" style="fill:#f6877a;fill-opacity:1;fill-rule:nonzero;stroke:none" id="path184"/>
      <path d="m 2762.12,3540.52 c 0,0 22.76,45.5 69.02,50.73 0,0 38,89.46 43.4,99.71 11.44,21.72 18.98,20.65 27.02,21.62 8.62,1.05 15.44,-7.15 12.94,-15.47 l -41.42,-137.87 -68.12,-44.79 -42.84,26.07" style="fill:#f6877a;fill-opacity:1;fill-rule:nonzero;stroke:none" id="path186"/>
      <path d="m 2801.98,3530 c 0,0 22.76,45.49 69.02,50.73 0,0 37.99,89.45 43.39,99.7 11.44,21.72 18.99,20.65 27.03,21.63 8.62,1.05 15.44,-7.16 12.94,-15.47 l -41.43,-137.88 -68.12,-44.79 -42.83,26.08" style="fill:#f6877a;fill-opacity:1;fill-rule:nonzero;stroke:none" id="path188"/>
      <path d="m 2833.21,3534.16 c 0,0 31.71,39.77 78.04,35.29 0,0 55.74,79.62 63.15,88.53 15.7,18.87 22.86,16.25 30.93,15.54 8.65,-0.76 13.62,-10.2 9.44,-17.82 l -69.14,-126.27 -75.93,-29.67 -36.49,34.4" style="fill:#f6877a;fill-opacity:1;fill-rule:nonzero;stroke:none" id="path190"/>
      <path d="m 2631.05,3459.84 c 0,0 1.44,88.24 94.47,88.31 0,0 19.02,34.16 55.66,32.58 l 40.36,93.32" style="fill:none;stroke:#f25150;stroke-width:11.918;stroke-linecap:butt;stroke-linejoin:miter;stroke-miterlimit:10;stroke-dasharray:none;stroke-opacity:1" id="path192"/>
      <path d="m 2863.02,3681.53 -34.2,-123.55" style="fill:none;stroke:#f25150;stroke-width:11.918;stroke-linecap:butt;stroke-linejoin:miter;stroke-miterlimit:10;stroke-dasharray:none;stroke-opacity:1" id="path194"/>
      <path d="m 2914.5,3697.11 -42.91,-142.1" style="fill:none;stroke:#f25150;stroke-width:11.918;stroke-linecap:butt;stroke-linejoin:miter;stroke-miterlimit:10;stroke-dasharray:none;stroke-opacity:1" id="path196"/>
      <path d="m 2885.85,3530.65 26.14,20.79 33.33,105.08" style="fill:none;stroke:#f25150;stroke-width:11.918;stroke-linecap:butt;stroke-linejoin:miter;stroke-miterlimit:10;stroke-dasharray:none;stroke-opacity:1" id="path198"/>
      <path d="m 2801.93,3459.84 c 0,0 364.9,-686.97 405.79,-781.53 40.89,-94.56 -43.44,-196.78 -94.55,-207.01 -51.12,-10.22 -280.02,0 -280.02,0 l -178.01,916.88 146.79,71.66" style="fill:#f6877a;fill-opacity:1;fill-rule:nonzero;stroke:none" id="path200"/>
      <path d="m 2641.84,2704.23 c 0,0 -654.5,190.99 -802.89,168.89 -148.39,-22.1 -217.85,-366.24 0,-385.19 217.85,-18.94 813.17,-6.67 813.17,-6.67 l -10.28,222.97" style="fill:#f6877a;fill-opacity:1;fill-rule:nonzero;stroke:none" id="path202"/>
      <path d="m 2641.84,2704.23 c 0,0 133.68,78.3 150.11,78.3 16.43,0 168.01,-134.65 178.46,-143.81 10.46,-9.16 -67.5,-167.47 -67.5,-167.47 h -62.43 l -32.56,69.94 c -4,8.59 -14.9,11.31 -22.47,5.61 l -88.35,-66.55 h -44.98 l -10.28,223.98" style="fill:#f6877a;fill-opacity:1;fill-rule:nonzero;stroke:none" id="path204"/>
      <path d="m 2791.95,2782.53 c 42.7,-24.4 168.01,-134.65 178.46,-143.81 10.46,-9.16 39.37,-163.83 39.37,-163.83" style="fill:none;stroke:#f25150;stroke-width:11.918;stroke-linecap:butt;stroke-linejoin:miter;stroke-miterlimit:10;stroke-dasharray:none;stroke-opacity:1" id="path206"/>
      <path d="m 2879.33,2635.01 24.23,-78.83 -28.49,-78.83" style="fill:none;stroke:#f25150;stroke-width:11.918;stroke-linecap:butt;stroke-linejoin:miter;stroke-miterlimit:10;stroke-dasharray:none;stroke-opacity:1" id="path208"/>
      <path d="m 2926.87,2628.71 24.23,-78.83 -28.49,-78.83" style="fill:none;stroke:#f25150;stroke-width:11.918;stroke-linecap:butt;stroke-linejoin:miter;stroke-miterlimit:10;stroke-dasharray:none;stroke-opacity:1" id="path210"/>
      <path d="m 2830.06,2605.75 33.79,-65.43 -11.29,-65.43" style="fill:none;stroke:#f25150;stroke-width:11.918;stroke-linecap:butt;stroke-linejoin:miter;stroke-miterlimit:10;stroke-dasharray:none;stroke-opacity:1" id="path212"/>
      <path d="m 2056.83,2850.5 c 0,0 123.33,-14.15 186.1,-40.64" style="fill:none;stroke:#f25150;stroke-width:11.918;stroke-linecap:butt;stroke-linejoin:miter;stroke-miterlimit:10;stroke-dasharray:none;stroke-opacity:1" id="path214"/>
      <path d="m 2936.85,3204.64 244.14,-470.5" style="fill:none;stroke:#f25150;stroke-width:11.918;stroke-linecap:butt;stroke-linejoin:miter;stroke-miterlimit:10;stroke-dasharray:none;stroke-opacity:1" id="path216"/>
      <path d="m 2679.43,1911.57 h -142.51 l 175.64,-141.22 z" style="fill:#230f23;fill-opacity:1;fill-rule:nonzero;stroke:none" id="path218"/>
      <path d="m 3108,3137.84 c 0,0 -39.7,-86.42 -18.68,-221.87" style="fill:none;stroke:#51c4bd;stroke-width:11.3878;stroke-linecap:butt;stroke-linejoin:miter;stroke-miterlimit:10;stroke-dasharray:none;stroke-opacity:1" id="path220"/>
      <path d="m 2428.37,2919.87 93.94,49.52 -57.04,-103.47 z" style="fill:#51c4bd;fill-opacity:1;fill-rule:nonzero;stroke:none" id="path222"/>
      <path d="M 4661.47,560.641 4013.8,2397.13 3366.12,560.641" style="fill:none;stroke:#230f23;stroke-width:35.754;stroke-linecap:round;stroke-linejoin:miter;stroke-miterlimit:10;stroke-dasharray:none;stroke-opacity:1" id="path224"/>
      <path d="M 1695.22,560.641 1047.55,2397.13 399.879,560.641" style="fill:none;stroke:#230f23;stroke-width:35.754;stroke-linecap:round;stroke-linejoin:miter;stroke-miterlimit:10;stroke-dasharray:none;stroke-opacity:1" id="path226"/>
      <path d="M 887.805,2381.93 H 4266.31 v 102.79 H 887.805 v -102.79" style="fill:#f25150;fill-opacity:1;fill-rule:nonzero;stroke:none" id="path228"/>
      <path d="m 3607.74,2889.9 h 622.56 c 4.18,0 7.58,-3.39 7.58,-7.58 v 0 c 0,-4.18 -3.4,-7.57 -7.58,-7.57 h -510.63 c -41.11,0 -74.44,-33.34 -74.44,-74.45 v 0 c 0,-41.12 33.33,-74.45 74.44,-74.45 h 510.63 c 4.18,0 7.58,-3.39 7.58,-7.58 v 0 c 0,-4.18 -3.4,-7.57 -7.58,-7.57 h -622.56 c -49.49,0 -89.61,40.11 -89.61,89.6 v 0 c 0,49.49 40.12,89.6 89.61,89.6" style="fill:#f25150;fill-opacity:1;fill-rule:nonzero;stroke:none" id="path230"/>
      <path d="m 4216.78,2874.75 c 0,0 -42.31,-54.23 0,-148.9 h -497.11 c -41.11,0 -74.44,33.33 -74.44,74.45 v 0 c 0,41.11 33.33,74.45 74.44,74.45 h 497.11" style="fill:#fddede;fill-opacity:1;fill-rule:nonzero;stroke:none" id="path232"/>
      <path d="M 4090.47,2851.43 H 3756.39" style="fill:none;stroke:#f25150;stroke-width:2.59296;stroke-linecap:butt;stroke-linejoin:miter;stroke-miterlimit:10;stroke-dasharray:none;stroke-opacity:1" id="path234"/>
      <path d="M 4179.46,2808.66 H 3845.38" style="fill:none;stroke:#f25150;stroke-width:2.59296;stroke-linecap:butt;stroke-linejoin:miter;stroke-miterlimit:10;stroke-dasharray:none;stroke-opacity:1" id="path236"/>
      <path d="M 4064.39,2771.07 H 3730.31" style="fill:none;stroke:#f25150;stroke-width:2.59296;stroke-linecap:butt;stroke-linejoin:miter;stroke-miterlimit:10;stroke-dasharray:none;stroke-opacity:1" id="path238"/>
      <path d="m 4150.14,3074.09 h -639.86 c -4.3,0 -7.78,-3.49 -7.78,-7.79 v 0 c 0,-4.3 3.48,-7.79 7.78,-7.79 h 524.82 c 42.25,0 76.51,-34.26 76.51,-76.51 v 0 c 0,-42.26 -34.26,-76.52 -76.51,-76.52 h -524.82 c -4.3,0 -7.78,-3.49 -7.78,-7.79 v 0 c 0,-4.3 3.48,-7.79 7.78,-7.79 h 639.86 c 50.86,0 92.09,41.23 92.09,92.1 v 0 c 0,50.86 -41.23,92.09 -92.09,92.09" style="fill:#4bab79;fill-opacity:1;fill-rule:nonzero;stroke:none" id="path240"/>
      <path d="m 3524.18,3058.51 c 0,0 43.49,-55.73 0,-153.03 h 510.92 c 42.25,0 76.51,34.26 76.51,76.52 v 0 c 0,42.25 -34.26,76.51 -76.51,76.51 h -510.92" style="fill:#fddede;fill-opacity:1;fill-rule:nonzero;stroke:none" id="path242"/>
      <path d="m 3653.99,3034.55 h 343.36" style="fill:none;stroke:#f25150;stroke-width:2.66499;stroke-linecap:butt;stroke-linejoin:miter;stroke-miterlimit:10;stroke-dasharray:none;stroke-opacity:1" id="path244"/>
      <path d="M 3562.54,2990.58 H 3905.9" style="fill:none;stroke:#f25150;stroke-width:2.66499;stroke-linecap:butt;stroke-linejoin:miter;stroke-miterlimit:10;stroke-dasharray:none;stroke-opacity:1" id="path246"/>
      <path d="m 3680.8,2951.95 h 343.36" style="fill:none;stroke:#f25150;stroke-width:2.66499;stroke-linecap:butt;stroke-linejoin:miter;stroke-miterlimit:10;stroke-dasharray:none;stroke-opacity:1" id="path248"/>
      <path d="m 4218.81,2711.95 h -785.04 c -5.27,0 -9.55,-4.28 -9.55,-9.56 v 0 c 0,-5.28 4.28,-9.56 9.55,-9.56 h 643.89 c 51.84,0 93.87,-42.02 93.87,-93.87 v 0 c 0,-51.84 -42.03,-93.87 -93.87,-93.87 h -643.89 c -5.27,0 -9.55,-4.28 -9.55,-9.56 v 0 c 0,-5.28 4.28,-9.56 9.55,-9.56 h 785.04 c 62.4,0 112.98,50.59 112.98,112.99 v 0 c 0,62.4 -50.58,112.99 -112.98,112.99" style="fill:#51c4bd;fill-opacity:1;fill-rule:nonzero;stroke:none" id="path250"/>
      <path d="m 3450.82,2692.83 c 0,0 53.36,-68.37 0,-187.74 h 626.84 c 51.84,0 93.87,42.03 93.87,93.87 v 0 c 0,51.85 -42.03,93.87 -93.87,93.87 h -626.84" style="fill:#fddede;fill-opacity:1;fill-rule:nonzero;stroke:none" id="path252"/>
      <path d="m 3610.09,2663.44 h 421.26" style="fill:none;stroke:#f25150;stroke-width:3.26964;stroke-linecap:butt;stroke-linejoin:miter;stroke-miterlimit:10;stroke-dasharray:none;stroke-opacity:1" id="path254"/>
      <path d="m 3497.88,2609.5 h 421.27" style="fill:none;stroke:#f25150;stroke-width:3.26964;stroke-linecap:butt;stroke-linejoin:miter;stroke-miterlimit:10;stroke-dasharray:none;stroke-opacity:1" id="path256"/>
      <path d="m 3642.98,2562.1 h 421.26" style="fill:none;stroke:#f25150;stroke-width:3.26964;stroke-linecap:butt;stroke-linejoin:miter;stroke-miterlimit:10;stroke-dasharray:none;stroke-opacity:1" id="path258"/>
      <path d="m 3905.37,2911.01 c -8.97,22.5 -2.2,49.75 24.86,67.79 19.28,12.85 29.05,33.99 29.49,55.75 h -85.36 c -0.44,-21.76 -10.22,-42.9 -29.49,-55.75 -27.07,-18.04 -33.84,-45.29 -24.86,-67.79 l 41.12,25.25 44.24,-25.25" style="fill:#f25150;fill-opacity:1;fill-rule:nonzero;stroke:none" id="path260"/>
      <path d="M 4179.46,1461.57 H 3845.38 V 530.191 h 334.08 v 931.379" style="fill:#230f23;fill-opacity:1;fill-rule:nonzero;stroke:none" id="path262"/>
      <path d="M 4139.41,1406.95 H 3885.42 V 727.09 h 253.99 v 679.86" style="fill:#51c4bd;fill-opacity:1;fill-rule:nonzero;stroke:none" id="path264"/>
      <path d="m 4110.48,1336 h -194.77 v 25.97 h 194.77 V 1336" style="fill:#230f23;fill-opacity:1;fill-rule:nonzero;stroke:none" id="path266"/>
      <path d="m 4110.48,1293.7 h -194.77 v 25.97 h 194.77 v -25.97" style="fill:#230f23;fill-opacity:1;fill-rule:nonzero;stroke:none" id="path268"/>
      <path d="m 4110.48,1251.4 h -194.77 v 25.97 h 194.77 v -25.97" style="fill:#230f23;fill-opacity:1;fill-rule:nonzero;stroke:none" id="path270"/>
      <path d="m 4052.63,1165.72 h 57.85 v 13.49 h -57.85 v -13.49" style="fill:#230f23;fill-opacity:1;fill-rule:nonzero;stroke:none" id="path272"/>
      <path d="m 4052.63,1134.58 h 57.85 v 13.5 h -57.85 v -13.5" style="fill:#230f23;fill-opacity:1;fill-rule:nonzero;stroke:none" id="path274"/>
      <path d="m 4052.63,1100.33 h 57.85 v 13.49 h -57.85 v -13.49" style="fill:#230f23;fill-opacity:1;fill-rule:nonzero;stroke:none" id="path276"/>
      <path d="m 3934.69,1175.45 c 0,-13.03 10.57,-23.6 23.6,-23.6 13.03,0 23.6,10.57 23.6,23.6 0,13.04 -10.57,23.6 -23.6,23.6 -13.03,0 -23.6,-10.56 -23.6,-23.6" style="fill:#f9b15a;fill-opacity:1;fill-rule:nonzero;stroke:none" id="path278"/>
      <path d="m 3934.69,1107.08 c 0,-13.04 10.57,-23.6 23.6,-23.6 13.03,0 23.6,10.56 23.6,23.6 0,13.03 -10.57,23.6 -23.6,23.6 -13.03,0 -23.6,-10.57 -23.6,-23.6" style="fill:#ffffff;fill-opacity:1;fill-rule:nonzero;stroke:none" id="path280"/>
      <path d="m 3934.69,1038.7 c 0,-13.03 10.57,-23.6 23.6,-23.6 13.03,0 23.6,10.57 23.6,23.6 0,13.03 -10.57,23.6 -23.6,23.6 -13.03,0 -23.6,-10.57 -23.6,-23.6" style="fill:#4bab79;fill-opacity:1;fill-rule:nonzero;stroke:none" id="path282"/>
      <path d="m 3990.92,895.801 h -65.27 v 76.379 h 65.27 v -76.379" style="fill:#230f23;fill-opacity:1;fill-rule:nonzero;stroke:none" id="path284"/>
      <path d="m 3990.92,801.582 h -65.27 v 65.27 h 65.27 v -65.27" style="fill:#230f23;fill-opacity:1;fill-rule:nonzero;stroke:none" id="path286"/>
      <path d="M 3958.29,933.988 C 3635.91,780.75 3185,1919.02 3362.75,1264.39 3537.9,619.359 2960.82,1593.26 2930,1093.81" style="fill:none;stroke:#230f23;stroke-width:11.918;stroke-linecap:butt;stroke-linejoin:miter;stroke-miterlimit:10;stroke-dasharray:none;stroke-opacity:1" id="path288"/>
      <path d="m 1040.84,2815.72 h 919.57 v 616.69 h -919.57 v -616.69" style="fill:#51c4bd;fill-opacity:1;fill-rule:nonzero;stroke:none" id="path290"/>
      <path d="m 2021.95,2815.72 h -61.54 v 616.69 h 61.54 v -616.69" style="fill:#f9b15a;fill-opacity:1;fill-rule:nonzero;stroke:none" id="path292"/>
      <path d="m 1298.81,2927.17 h 359.59 v 128.02 h -359.59 v -128.02" style="fill:#230f23;fill-opacity:1;fill-rule:nonzero;stroke:none" id="path294"/>
      <path d="m 1440.45,2506.99 h 120.35 v 308.73 h -120.35 v -308.73" style="fill:#230f23;fill-opacity:1;fill-rule:nonzero;stroke:none" id="path296"/>
      <path d="m 1478.61,2991.18 c 0,0 -217.06,70.52 -332.62,-106.36 -115.56,-176.87 -57.23,-368.12 98.42,-269.07 155.65,99.05 144.31,329.71 -1.5,187.21 -65.9,-64.4 -106.36,-299.65 485.59,-291.67" style="fill:none;stroke:#230f23;stroke-width:12.5022;stroke-linecap:butt;stroke-linejoin:miter;stroke-miterlimit:10;stroke-dasharray:none;stroke-opacity:1" id="path298"/>
      <path d="m 1235.95,2485.71 h 618.88 c 14.13,0 25.58,11.45 25.58,25.58 v 0 c 0,14.13 -11.45,25.58 -25.58,25.58 h -618.88 c -14.13,0 -25.58,-11.45 -25.58,-25.58 v 0 c 0,-14.13 11.45,-25.58 25.58,-25.58" style="fill:#51c4bd;fill-opacity:1;fill-rule:nonzero;stroke:none" id="path300"/>
      <path d="m 2447.53,2556.18 v 14.73 h -74.27 v -14.73 h -19.24 v 14.73 h -74.27 v -14.73 h -19.24 v 14.73 h -74.27 v -14.73 h -19.23 v 14.73 h -74.27 v -14.73 h -19.24 v 14.73 h -74.27 v -14.73 h -27.68 c -15.25,0 -27.61,-12.36 -27.61,-27.61 v -15.25 c 0,-15.25 12.36,-27.61 27.61,-27.61 h 491.3 c 15.24,0 27.61,12.36 27.61,27.61 v 15.25 c 0,15.25 -12.37,27.61 -27.61,27.61 h -15.32" style="fill:#ffffff;fill-opacity:1;fill-rule:nonzero;stroke:none" id="path302"/>
      <path d="m 3300.9,4497.97 227.4,-462.65 392.11,272.78 z" style="fill:#ffffff;fill-opacity:1;fill-rule:nonzero;stroke:none" id="path304"/>
      <path d="m 3300.9,4497.97 402.18,-341.06 68.5,47.65 z" style="fill:#f6877a;fill-opacity:1;fill-rule:nonzero;stroke:none" id="path306"/>
      <path d="m 3703.08,4156.91 44.36,-144.28 24.14,191.93 z" style="fill:#f6877a;fill-opacity:1;fill-rule:nonzero;stroke:none" id="path308"/>
      <path d="m 3747.44,4012.63 -129.69,84.92 85.33,59.36 z" style="fill:#fddede;fill-opacity:1;fill-rule:nonzero;stroke:none" id="path310"/>
      <path d="M 1083.09,3777.77 904.242,3413.89 595.84,3628.43 Z" style="fill:#ffffff;fill-opacity:1;fill-rule:nonzero;stroke:none" id="path312"/>
      <path d="M 1083.09,3777.77 766.77,3509.52 712.898,3547 Z" style="fill:#f6877a;fill-opacity:1;fill-rule:nonzero;stroke:none" id="path314"/>
      <path d="M 766.77,3509.52 731.879,3396.04 712.898,3547 Z" style="fill:#f6877a;fill-opacity:1;fill-rule:nonzero;stroke:none" id="path316"/>
      <path d="m 731.879,3396.04 102.004,66.79 -67.113,46.69 z" style="fill:#fddede;fill-opacity:1;fill-rule:nonzero;stroke:none" id="path318"/>
      <path d="m 3885.96,4035.32 c 0,0 -65.77,-460.35 602.81,-379.15 668.57,81.21 -35.27,375.09 -529.05,-91.17 -466.03,-440.07 1306.77,-281.8 433.04,-690.1" style="fill:none;stroke:#ffffff;stroke-width:11.8234;stroke-linecap:butt;stroke-linejoin:miter;stroke-miterlimit:10;stroke-dasharray:none;stroke-opacity:1" id="path320"/>
      <path d="m 699.168,3294.6 c 0,0 -196.195,-122.44 -285.563,-343.36 -96.98,-239.73 -77.453,-575.12 207.368,-454.98 183.902,77.58 299.824,395.41 149.425,374.04 -150.402,-21.36 -555.214,-475.95 52.508,-733.37" style="fill:none;stroke:#ffffff;stroke-width:9.86603;stroke-linecap:butt;stroke-linejoin:miter;stroke-miterlimit:10;stroke-dasharray:none;stroke-opacity:1" id="path322"/>
    </g>
  </g>
</svg>