<svg version="1.1" width="1000px" height="1000px" vieBox="0 0 1000 1000" viewBox="70.503 59.787 601.078 406.808" xmlns="http://www.w3.org/2000/svg">
  <g id="OBJECTS">
    <g>
      <g>
        <g></g>
      </g>
      <g>
        <g>
          <g>
            <rect x="201.229" y="198.356" style="fill:#FFFFFF;stroke:#D2D2D2;stroke-miterlimit:10;" width="99.534" height="56.393"></rect>
            <g>
              <rect x="197.281" y="192.606" style="fill:#FFFFFF;stroke:#D2D2D2;stroke-miterlimit:10;" width="107.43" height="10.529"></rect>
            </g>
            <rect x="230.246" y="209.481" style="fill:none;stroke:#D2D2D2;stroke-linecap:round;stroke-miterlimit:10;" width="41.501" height="8.007"></rect>
            <rect x="236.116" y="222.855" style="fill:#D2D2D2;" width="29.761" height="14.168"></rect>
          </g>
          <g>
            <rect x="412.247" y="208.396" style="fill:#FFFFFF;stroke:#D2D2D2;stroke-miterlimit:10;" width="79.498" height="45.041"></rect>
            <g>
              <rect x="409.094" y="203.803" style="fill:#FFFFFF;stroke:#D2D2D2;stroke-miterlimit:10;" width="85.805" height="8.41"></rect>
            </g>
            <rect x="435.423" y="217.282" style="fill:none;stroke:#D2D2D2;stroke-linecap:round;stroke-miterlimit:10;" width="33.147" height="6.396"></rect>
            <rect x="440.111" y="227.964" style="fill:#D2D2D2;" width="23.77" height="11.316"></rect>
          </g>
          <g>
            <rect x="211.575" y="341.159" style="fill:#D2D2D2;" width="125.538" height="71.126"></rect>
            <g>
              <rect x="206.595" y="333.907" style="fill:#D2D2D2;" width="135.497" height="13.28"></rect>
              <line style="fill:none;stroke:#1F1F1F;stroke-linecap:round;stroke-miterlimit:10;" x1="206.595" y1="347.187" x2="342.092" y2="347.187"></line>
            </g>
            <rect x="248.172" y="355.191" style="fill:none;stroke:#1F1F1F;stroke-linecap:round;stroke-miterlimit:10;" width="52.344" height="10.099"></rect>
            <rect x="255.576" y="372.059" style="fill:#FFFFFF;" width="37.536" height="17.869"></rect>
          </g>
          <g>
            <rect x="206.995" y="262.531" style="fill:#D2D2D2;" width="125.538" height="71.126"></rect>
            <g>
              <rect x="202.016" y="255.279" style="fill:#D2D2D2;" width="135.497" height="13.28"></rect>
              <line style="fill:none;stroke:#1F1F1F;stroke-linecap:round;stroke-miterlimit:10;" x1="202.016" y1="268.559" x2="337.513" y2="268.559"></line>
            </g>
            <rect x="243.592" y="276.563" style="fill:none;stroke:#1F1F1F;stroke-linecap:round;stroke-miterlimit:10;" width="52.344" height="10.1"></rect>
            <rect x="250.996" y="293.431" style="fill:#FFFFFF;" width="37.536" height="17.869"></rect>
            <line style="fill:none;stroke:#1F1F1F;stroke-linecap:round;stroke-miterlimit:10;" x1="206.995" y1="333.657" x2="332.533" y2="333.657"></line>
          </g>
          <g>
            <rect x="408.34" y="261.217" style="fill:#D2D2D2;" width="125.538" height="71.126"></rect>
            <g>
              <rect x="403.361" y="253.964" style="fill:#D2D2D2;" width="135.497" height="13.28"></rect>
              <line style="fill:none;stroke:#1F1F1F;stroke-linecap:round;stroke-miterlimit:10;" x1="403.361" y1="267.245" x2="538.858" y2="267.245"></line>
            </g>
            <rect x="444.937" y="275.249" style="fill:none;stroke:#1F1F1F;stroke-linecap:round;stroke-miterlimit:10;" width="52.344" height="10.099"></rect>
            <rect x="452.341" y="292.117" style="fill:#FFFFFF;" width="37.536" height="17.869"></rect>
            <line style="fill:none;stroke:#1F1F1F;stroke-linecap:round;stroke-miterlimit:10;" x1="408.34" y1="332.343" x2="533.878" y2="332.343"></line>
          </g>
          <g>
            <rect x="417.667" y="340.122" style="fill:#FFFFFF;stroke:#D2D2D2;stroke-miterlimit:10;" width="125.538" height="71.126"></rect>
            <g>
              <rect x="412.688" y="332.87" style="fill:#FFFFFF;stroke:#D2D2D2;stroke-miterlimit:10;" width="135.497" height="13.28"></rect>
            </g>
            <rect x="454.265" y="354.154" style="fill:none;stroke:#D2D2D2;stroke-linecap:round;stroke-miterlimit:10;" width="52.344" height="10.099"></rect>
            <rect x="461.669" y="371.022" style="fill:#D2D2D2;" width="37.536" height="17.869"></rect>
          </g>
          <g>
            <rect x="86.926" y="341.159" style="fill:#F5C326;" width="125.538" height="71.126"></rect>
            <g>
              <rect x="81.946" y="333.907" style="fill:#F5C326;" width="135.497" height="13.28"></rect>
              <line style="fill:none;stroke:#1F1F1F;stroke-linecap:round;stroke-miterlimit:10;" x1="81.946" y1="347.187" x2="217.443" y2="347.187"></line>
            </g>
            <rect x="123.523" y="355.191" style="fill:none;stroke:#1F1F1F;stroke-linecap:round;stroke-miterlimit:10;" width="52.344" height="10.099"></rect>
            <rect x="130.927" y="372.059" style="fill:#FFFFFF;" width="37.536" height="17.869"></rect>
          </g>
          <g>
            <polygon style="fill:#FFFFFF;" points="541.421,337.898 541.421,324.416 657.95,324.416 657.95,337.898 655.49,337.898 
						654.465,350.207 654.465,361.345 646.112,361.345 645.651,371.603 654.465,371.603 653.338,388.601 648.572,388.601 
						649.495,406.479 653.876,406.479 653.799,419.082 543.88,419.082 543.419,406.479 547.186,406.479 547.493,388.601 
						535.809,388.601 535.425,371.236 540.344,371.603 540.114,361.345 535.425,361.345 535.425,350.207 531.659,337.898 					"></polygon>
            <g>
              <polygon style="fill:#E3E3E3;" points="655.49,337.898 655.49,342.978 593.536,340.438 						"></polygon>
              <polygon style="fill:#E3E3E3;" points="657.95,329.301 595.227,329.301 594.151,329.301 657.95,334.858 						"></polygon>
              <polygon style="fill:#E3E3E3;" points="540.114,361.345 540.245,367.167 625.154,361.345 						"></polygon>
              <polygon style="fill:#E3E3E3;" points="613.214,379.516 653.81,381.493 653.991,378.762 						"></polygon>
              <polygon style="fill:#E3E3E3;" points="648.815,393.315 648.664,390.388 582.416,391.825 						"></polygon>
              <polygon style="fill:#E0E0E0;" points="547.186,406.479 543.419,406.479 543.524,409.339 627.409,406.479 						"></polygon>
            </g>
            <g>
              <line style="fill:none;stroke:#1F1F1F;stroke-linecap:round;stroke-miterlimit:10;" x1="532.504" y1="337.898" x2="659.487" y2="337.898"></line>
              <path style="fill:none;stroke:#1F1F1F;stroke-linecap:round;stroke-miterlimit:10;" d="M534.964,361.345
							c1.537,0,118.374,0,118.374,0"></path>
              <path style="fill:none;stroke:#1F1F1F;stroke-linecap:round;stroke-miterlimit:10;" d="M534.964,350.207
							c1.845,0,120.526,0,120.526,0"></path>
              <line style="fill:none;stroke:#1F1F1F;stroke-linecap:round;stroke-miterlimit:10;" x1="554.642" y1="354.897" x2="599.224" y2="354.897"></line>
              <line style="fill:none;stroke:#1F1F1F;stroke-linecap:round;stroke-miterlimit:10;" x1="534.964" y1="371.603" x2="654.465" y2="371.603"></line>
              <line style="fill:none;stroke:#1F1F1F;stroke-linecap:round;stroke-miterlimit:10;" x1="534.964" y1="388.601" x2="653.577" y2="388.601"></line>
              <line style="fill:none;stroke:#1F1F1F;stroke-linecap:round;stroke-miterlimit:10;" x1="548.185" y1="396.222" x2="647.496" y2="396.222"></line>
              <line style="fill:none;stroke:#1F1F1F;stroke-linecap:round;stroke-miterlimit:10;" x1="554.642" y1="401.79" x2="619.824" y2="401.79"></line>
              <line style="fill:none;stroke:#1F1F1F;stroke-linecap:round;stroke-miterlimit:10;" x1="542.958" y1="406.479" x2="653.338" y2="406.479"></line>
              <line style="fill:none;stroke:#1F1F1F;stroke-linecap:round;stroke-miterlimit:10;" x1="542.958" y1="419.082" x2="653.338" y2="419.082"></line>
              <line style="fill:none;stroke:#1F1F1F;stroke-linecap:round;stroke-miterlimit:10;" x1="541.421" y1="324.416" x2="655.49" y2="324.416"></line>
              <line style="fill:none;stroke:#1F1F1F;stroke-linecap:round;stroke-miterlimit:10;" x1="573.09" y1="414.1" x2="653.338" y2="414.1"></line>
            </g>
          </g>
          <g>
            <polygon style="fill:#FFFFFF;" points="117.673,252.238 117.673,238.756 234.202,238.756 234.202,252.238 231.742,252.238 
						230.717,264.547 230.717,275.685 222.365,275.685 221.904,285.943 230.717,285.943 229.59,302.941 224.824,302.941 
						225.747,320.82 230.128,320.82 230.051,333.422 120.133,333.422 119.671,320.82 123.438,320.82 123.745,302.941 
						112.062,302.941 111.677,285.576 116.597,285.943 116.366,275.685 111.677,275.685 111.677,264.547 107.911,252.238 					"></polygon>
            <g>
              <polygon style="fill:#E3E3E3;" points="231.742,252.238 231.742,257.318 169.788,254.778 						"></polygon>
              <polygon style="fill:#E3E3E3;" points="234.202,243.641 171.479,243.641 170.403,243.641 234.202,249.198 						"></polygon>
              <polygon style="fill:#E3E3E3;" points="116.366,275.685 116.497,281.508 201.406,275.685 						"></polygon>
              <polygon style="fill:#E3E3E3;" points="189.466,293.856 230.062,295.833 230.243,293.102 						"></polygon>
              <polygon style="fill:#E3E3E3;" points="225.068,307.655 224.917,304.728 158.668,306.165 						"></polygon>
              <polygon style="fill:#E0E0E0;" points="123.438,320.82 119.671,320.82 119.776,323.679 203.661,320.82 						"></polygon>
            </g>
            <g>
              <line style="fill:none;stroke:#1F1F1F;stroke-linecap:round;stroke-miterlimit:10;" x1="108.756" y1="252.238" x2="235.739" y2="252.238"></line>
              <path style="fill:none;stroke:#1F1F1F;stroke-linecap:round;stroke-miterlimit:10;" d="M111.216,275.685
							c1.537,0,118.374,0,118.374,0"></path>
              <path style="fill:none;stroke:#1F1F1F;stroke-linecap:round;stroke-miterlimit:10;" d="M111.216,264.547
							c1.845,0,120.526,0,120.526,0"></path>
              <line style="fill:none;stroke:#1F1F1F;stroke-linecap:round;stroke-miterlimit:10;" x1="130.894" y1="269.237" x2="175.476" y2="269.237"></line>
              <line style="fill:none;stroke:#1F1F1F;stroke-linecap:round;stroke-miterlimit:10;" x1="111.216" y1="285.943" x2="230.717" y2="285.943"></line>
              <line style="fill:none;stroke:#1F1F1F;stroke-linecap:round;stroke-miterlimit:10;" x1="111.216" y1="302.941" x2="229.829" y2="302.941"></line>
              <line style="fill:none;stroke:#1F1F1F;stroke-linecap:round;stroke-miterlimit:10;" x1="124.437" y1="310.562" x2="223.748" y2="310.562"></line>
              <line style="fill:none;stroke:#1F1F1F;stroke-linecap:round;stroke-miterlimit:10;" x1="130.894" y1="316.13" x2="196.076" y2="316.13"></line>
              <line style="fill:none;stroke:#1F1F1F;stroke-linecap:round;stroke-miterlimit:10;" x1="119.21" y1="320.82" x2="229.59" y2="320.82"></line>
              <line style="fill:none;stroke:#1F1F1F;stroke-linecap:round;stroke-miterlimit:10;" x1="119.21" y1="333.422" x2="229.59" y2="333.422"></line>
              <line style="fill:none;stroke:#1F1F1F;stroke-linecap:round;stroke-miterlimit:10;" x1="117.673" y1="238.756" x2="231.742" y2="238.756"></line>
              <line style="fill:none;stroke:#1F1F1F;stroke-linecap:round;stroke-miterlimit:10;" x1="149.342" y1="328.44" x2="229.59" y2="328.44"></line>
            </g>
          </g>
          <g>
            <g>
              <rect x="501.136" y="402.951" style="fill:#4CAF6E;" width="119.551" height="27.658"></rect>
              <path style="fill:#1F1F1F;stroke:#E3E3E3;stroke-miterlimit:10;" d="M521.519,416.78c0,3.312-2.685,5.996-5.996,5.996
							c-3.312,0-5.996-2.685-5.996-5.996c0-3.312,2.685-5.996,5.996-5.996C518.834,410.783,521.519,413.468,521.519,416.78z"></path>
              <rect x="530.54" y="410.019" style="fill:#FFFFFF;" width="80.796" height="13.52"></rect>
            </g>
            <g>
              <rect x="511.163" y="375.958" style="fill:#D2D2D2;" width="119.551" height="26.909"></rect>
              <path style="fill:#1F1F1F;stroke:#E3E3E3;stroke-miterlimit:10;" d="M529.098,389.413c0,3.312-2.685,5.996-5.996,5.996
							c-3.312,0-5.996-2.685-5.996-5.996c0-3.312,2.685-5.996,5.996-5.996C526.413,383.416,529.098,386.101,529.098,389.413z"></path>
              <rect x="538.119" y="382.652" style="fill:#FFFFFF;" width="80.796" height="13.52"></rect>
            </g>
          </g>
        </g>
        <g>
          <g>
            <path style="fill:#F08CA8;" d="M169.692,395.209h4.638v4.134h-4.638c-1.192,0-2.161,0.97-2.161,2.162v14.874
						c0,1.192,0.969,2.162,2.161,2.162h4.638v4.134h-4.638c-3.471,0-6.295-2.825-6.295-6.296v-14.874
						C163.397,398.034,166.221,395.209,169.692,395.209z"></path>
            <g>
              <path style="fill:#F08CA8;" d="M180.325,438.003h29.759c3.311,0,5.995-2.684,5.995-5.995v-41.471
							c0-3.311-2.684-5.995-5.995-5.995h-29.759c-3.311,0-5.995,2.684-5.995,5.995v41.471
							C174.33,435.319,177.014,438.003,180.325,438.003z"></path>
            </g>
          </g>
          <g style="opacity:0.4;">
            <path style="fill:#FFFFFF;" d="M228.12,364.242c-5.928,11.614-19.374,16.618-30.032,11.178
						c-10.658-5.44-14.492-19.266-8.563-30.879c5.928-11.614,19.374-16.618,30.032-11.178
						C230.214,338.803,234.048,352.628,228.12,364.242z"></path>
            <path style="fill:#FFFFFF;" d="M246.561,324.215c-2.034,6.499-8.692,10.2-14.871,8.266c-6.18-1.934-9.541-8.77-7.507-15.269
						c2.034-6.499,8.692-10.2,14.871-8.266C245.233,310.88,248.594,317.716,246.561,324.215z"></path>
          </g>
          <g>
            <path style="fill:none;stroke:#1F1F1F;stroke-linecap:round;stroke-miterlimit:10;" d="M203.497,384.542
						c0,0,7.059-0.818,8.471,3.906s0.923,20.493,0.923,20.493"></path>
            <g>
              <path style="fill:#4CAF6E;" d="M216.13,425.154h-7.907c-2.495,0-4.517-2.022-4.517-4.517v-11c0-2.495,2.022-4.517,4.517-4.517
							h7.907c2.495,0,4.517,2.022,4.517,4.517v11C220.647,423.132,218.624,425.154,216.13,425.154z"></path>
              <g>
                <g>
                  <path style="fill:#FFFFFF;" d="M212.176,420.812L212.176,420.812c-0.589,0-1.066-0.478-1.066-1.066v-9.218
									c0-0.589,0.477-1.066,1.066-1.066l0,0c0.589,0,1.066,0.477,1.066,1.066v9.218
									C213.242,420.335,212.765,420.812,212.176,420.812z"></path>
                  <path style="fill:#FFFFFF;" d="M206.501,415.137L206.501,415.137c0-0.589,0.478-1.066,1.066-1.066h9.218
									c0.589,0,1.066,0.478,1.066,1.066l0,0c0,0.589-0.477,1.066-1.066,1.066h-9.218
									C206.978,416.203,206.501,415.726,206.501,415.137z"></path>
                  <path style="fill:#FFFFFF;" d="M208.163,419.15L208.163,419.15c-0.416-0.416-0.416-1.092,0-1.508l6.518-6.518
									c0.416-0.416,1.092-0.416,1.508,0l0,0c0.416,0.417,0.416,1.092,0,1.508l-6.518,6.518
									C209.255,419.566,208.579,419.566,208.163,419.15z"></path>
                  <path style="fill:#FFFFFF;" d="M208.163,411.124L208.163,411.124c0.416-0.416,1.092-0.416,1.508,0l6.518,6.518
									c0.416,0.417,0.416,1.092,0,1.508l0,0c-0.417,0.416-1.092,0.416-1.508,0l-6.518-6.518
									C207.746,412.216,207.746,411.54,208.163,411.124z"></path>
                </g>
                <circle style="fill:#F5C326;" cx="212.176" cy="415.137" r="1.362"></circle>
              </g>
            </g>
          </g>
        </g>
        <g>
          <circle style="fill:#FFFFFF;stroke:#D2D2D2;stroke-linecap:round;stroke-miterlimit:10;" cx="194.147" cy="122.878" r="37.732"></circle>
          <circle style="fill:none;stroke:#D2D2D2;stroke-linecap:round;stroke-miterlimit:10;" cx="194.147" cy="122.878" r="32.277"></circle>
          <polyline style="fill:none;stroke:#D2D2D2;stroke-linecap:round;stroke-miterlimit:10;" points="192.3,103.869 193.257,127.218 
					213.242,115.164 				"></polyline>
          <line style="fill:none;stroke:#D2D2D2;stroke-linecap:round;stroke-miterlimit:10;" x1="192.3" y1="148.182" x2="192.3" y2="150.896"></line>
          <line style="fill:none;stroke:#D2D2D2;stroke-linecap:round;stroke-miterlimit:10;" x1="192.3" y1="93.992" x2="192.3" y2="96.924"></line>
          <line style="fill:none;stroke:#D2D2D2;stroke-linecap:round;stroke-miterlimit:10;" x1="218.906" y1="122.878" x2="221.886" y2="122.878"></line>
          <line style="fill:none;stroke:#D2D2D2;stroke-linecap:round;stroke-miterlimit:10;" x1="164.934" y1="122.878" x2="167.648" y2="122.878"></line>
        </g>
        <g>
          <g>
            <g>
              <path style="fill:#F08CA8;" d="M594.293,264.315c0,0-12.686-7.632-8.601-11.424c4.085-3.792,7.932,6.512,7.932,6.512
							s-4.395-12.196,1.445-12.757c5.84-0.561,1.886,12.903,1.886,12.903s4.165-11.003,7.648-7.58S598.634,266.209,594.293,264.315z
							"></path>
            </g>
            <g>
              <ellipse transform="matrix(0.0438 -0.999 0.999 0.0438 289.8171 862.1068)" style="fill:#4CAF6E;" cx="595.296" cy="279.645" rx="16.959" ry="18.358"></ellipse>
              <g>
                <g>
                  <path style="fill:#FFFFFF;" d="M582.433,268.821c-0.026,0.604-0.578,1.07-1.231,1.041c-0.653-0.029-1.161-0.541-1.135-1.145
									c0.026-0.603,0.578-1.07,1.231-1.041C581.951,267.705,582.459,268.218,582.433,268.821z"></path>
                  <path style="fill:#FFFFFF;" d="M586.238,279.995c-0.039,0.893-0.854,1.582-1.82,1.539s-1.718-0.8-1.678-1.693
									c0.039-0.893,0.854-1.582,1.82-1.539C585.526,278.344,586.277,279.102,586.238,279.995z"></path>
                  <path style="fill:#FFFFFF;" d="M597.836,273.772c-0.058,1.33-1.272,2.356-2.712,2.293c-1.439-0.063-2.559-1.192-2.5-2.522
									c0.058-1.33,1.272-2.356,2.712-2.293C596.774,271.313,597.894,272.442,597.836,273.772z"></path>
                  <path style="fill:#FFFFFF;" d="M597.486,291.008c-0.034,0.768-0.735,1.362-1.567,1.325
									c-0.832-0.036-1.479-0.689-1.445-1.457c0.034-0.768,0.735-1.362,1.567-1.325
									C596.872,289.587,597.519,290.239,597.486,291.008z"></path>
                  <path style="fill:#FFFFFF;" d="M608.164,282.258c-0.045,1.03-0.986,1.825-2.101,1.776c-1.115-0.049-1.982-0.924-1.937-1.954
									c0.045-1.03,0.986-1.826,2.101-1.776C607.342,280.353,608.209,281.228,608.164,282.258z"></path>
                  <path style="fill:#FFFFFF;" d="M602.911,268.27c-0.04,0.92-0.881,1.63-1.876,1.587c-0.996-0.044-1.771-0.825-1.73-1.745
									c0.04-0.92,0.88-1.63,1.876-1.587C602.177,266.569,602.951,267.35,602.911,268.27z"></path>
                  <path style="fill:#FFFFFF;" d="M612.321,270.725c-0.041,0.93-0.89,1.647-1.896,1.603c-1.006-0.044-1.789-0.834-1.748-1.763
									c0.041-0.93,0.89-1.648,1.896-1.603C611.58,269.006,612.362,269.795,612.321,270.725z"></path>
                  <path style="fill:#FFFFFF;" d="M611.391,290.375c-0.03,0.685-0.656,1.215-1.398,1.182c-0.742-0.033-1.319-0.615-1.289-1.3
									c0.03-0.686,0.656-1.215,1.398-1.182C610.844,289.107,611.421,289.689,611.391,290.375z"></path>
                  <path style="fill:#FFFFFF;" d="M583.335,289.837c-0.047,1.068-1.022,1.893-2.178,1.842
									c-1.156-0.051-2.055-0.958-2.009-2.026c0.047-1.068,1.022-1.893,2.178-1.842S583.382,288.769,583.335,289.837z"></path>
                </g>
                <g>
                  <path style="fill:#FFFFFF;" d="M596.835,296.553l-1.69-33.87c-0.362,0-0.722,0.011-1.079,0.031
									c-6.067,4.709-9.345,10.125-9.728,16.107c-0.464,7.239,3.478,13.669,6.17,17.166c0.382,0.098,0.768,0.187,1.159,0.262
									c-2.596-3.203-7.041-9.857-6.555-17.385c0.369-5.726,3.494-10.931,9.292-15.481l1.658,33.209
									C596.32,296.585,596.578,296.572,596.835,296.553z"></path>
                  <path style="fill:#FFFFFF;" d="M596.04,262.702l-0.286,0.239c7.151,7.286,10.439,14.541,9.774,21.563
									c-0.461,4.862-2.778,8.751-4.963,11.422c0.427-0.116,0.85-0.242,1.264-0.386c2.044-2.708,4.038-6.425,4.47-10.96
									c0.68-7.143-2.591-14.49-9.71-21.842C596.406,262.726,596.224,262.71,596.04,262.702L596.04,262.702z"></path>
                </g>
              </g>
            </g>
          </g>
          <g>
            <polygon style="fill:#F5C326;" points="607.822,324.068 583.021,323.885 581.213,309.27 579.961,299.147 610.831,299.147 
						609.382,311.144 					"></polygon>
            <g>
              <path style="fill:#F5C326;" d="M612.659,301.185h-34.047c-1.308,0-2.369-1.06-2.369-2.368v-1.603
							c0-1.308,1.06-2.368,2.369-2.368h34.047c1.308,0,2.368,1.06,2.368,2.368v1.603
							C615.027,300.125,613.967,301.185,612.659,301.185z"></path>
              <line style="fill:none;stroke:#1F1F1F;stroke-linecap:round;stroke-miterlimit:10;" x1="578.356" y1="301.185" x2="613.253" y2="301.185"></line>
            </g>
          </g>
        </g>
        <g>
          <rect x="456.241" y="67.203" style="fill:#FFFFFF;stroke:#D2D2D2;stroke-miterlimit:10;" width="157.445" height="111.35"></rect>
          <g>
            <line style="fill:none;stroke:#D2D2D2;stroke-linecap:round;stroke-miterlimit:10;" x1="476.305" y1="93.862" x2="584.961" y2="93.862"></line>
            <rect x="476.305" y="81.473" style="fill:#D2D2D2;" width="101.725" height="6.762"></rect>
            <g>
              <g>
                <rect x="476.305" y="105.576" style="fill:#D2D2D2;" width="8.984" height="8.984"></rect>
                <rect x="494.369" y="105.576" style="fill:#D2D2D2;" width="8.984" height="8.984"></rect>
                <rect x="514.344" y="105.576" style="fill:#D2D2D2;" width="8.984" height="8.984"></rect>
                <rect x="531.298" y="105.576" style="fill:#D2D2D2;" width="8.984" height="8.984"></rect>
                <rect x="549.267" y="105.576" style="fill:#D2D2D2;" width="8.984" height="8.984"></rect>
                <rect x="567.235" y="105.576" style="fill:#D2D2D2;" width="8.984" height="8.984"></rect>
                <rect x="584.638" y="105.576" style="fill:#D2D2D2;" width="8.984" height="8.984"></rect>
              </g>
              <g>
                <rect x="476.305" y="121.439" style="fill:#D2D2D2;" width="8.984" height="8.984"></rect>
                <rect x="494.369" y="121.439" style="fill:#D2D2D2;" width="8.984" height="8.984"></rect>
                <rect x="514.344" y="121.439" style="fill:#D2D2D2;" width="8.984" height="8.984"></rect>
                <rect x="531.298" y="121.439" style="fill:#D2D2D2;" width="8.984" height="8.984"></rect>
                <rect x="549.267" y="121.439" style="fill:#D2D2D2;" width="8.984" height="8.984"></rect>
                <rect x="567.235" y="121.439" style="fill:#D2D2D2;" width="8.984" height="8.984"></rect>
                <rect x="584.638" y="121.439" style="fill:#D2D2D2;" width="8.984" height="8.984"></rect>
              </g>
              <g>
                <rect x="476.305" y="137.302" style="fill:#D2D2D2;" width="8.984" height="8.984"></rect>
                <rect x="494.369" y="137.302" style="fill:#D2D2D2;" width="8.984" height="8.984"></rect>
                <rect x="514.344" y="137.302" style="fill:#D2D2D2;" width="8.984" height="8.984"></rect>
                <rect x="531.298" y="137.302" style="fill:#D2D2D2;" width="8.984" height="8.984"></rect>
                <rect x="549.267" y="137.302" style="fill:#D2D2D2;" width="8.984" height="8.984"></rect>
                <rect x="567.235" y="137.302" style="fill:#D2D2D2;" width="8.984" height="8.984"></rect>
                <rect x="584.638" y="137.302" style="fill:#D2D2D2;" width="8.984" height="8.984"></rect>
              </g>
              <g>
                <rect x="476.305" y="153.165" style="fill:#D2D2D2;" width="8.984" height="8.984"></rect>
                <rect x="494.369" y="153.165" style="fill:#D2D2D2;" width="8.984" height="8.984"></rect>
                <rect x="514.344" y="153.165" style="fill:#D2D2D2;" width="8.984" height="8.984"></rect>
                <rect x="531.298" y="153.165" style="fill:#D2D2D2;" width="8.984" height="8.984"></rect>
                <rect x="549.267" y="153.165" style="fill:#D2D2D2;" width="8.984" height="8.984"></rect>
                <rect x="567.235" y="153.165" style="fill:#D2D2D2;" width="8.984" height="8.984"></rect>
                <rect x="584.638" y="153.165" style="fill:#D2D2D2;" width="8.984" height="8.984"></rect>
              </g>
            </g>
          </g>
        </g>
      </g>
      <g>
        <g>
          <path style="fill:#1F1F1F;" d="M274.344,343.248l9.233,31.543h165.419l-3.505-34.171l-68.798-7.998
					c0,0-15.612-3.221-27.438-2.577C337.429,330.689,274.344,343.248,274.344,343.248z"></path>
          <g>
            <g>
              <path style="fill:#F6C8A6;" d="M376.693,421.108l26.162,6.853c0,0,3.852,2.97,7.401,2.738
							c3.549-0.232,13.519-4.457,13.368-12.634c-0.151-8.177-15.928-12.702-15.928-12.702l-24.689-8.614L376.693,421.108z"></path>
              <g>
                <path style="fill:#1F1F1F;" d="M402.434,427.872c0,0,8.319,12.237,49.963,21.474s8.062-47.289-44.7-43.982
								c0,0,15.793,9.327,13.047,17.74C417.998,431.516,402.434,427.872,402.434,427.872z"></path>
                <g>
                  <line style="fill:none;stroke:#FFFFFF;stroke-linecap:round;stroke-miterlimit:10;" x1="446.709" y1="425.855" x2="441.492" y2="437.687"></line>
                  <line style="fill:none;stroke:#FFFFFF;stroke-linecap:round;stroke-miterlimit:10;" x1="438.675" y1="420.722" x2="431.232" y2="436.202"></line>
                  <line style="fill:none;stroke:#FFFFFF;stroke-linecap:round;stroke-miterlimit:10;" x1="430.452" y1="416.783" x2="422.668" y2="432.633"></line>
                </g>
              </g>
              <path style="fill:none;stroke:#D2D2D2;stroke-linecap:round;stroke-miterlimit:10;" d="M441.492,411.542
							c0,0,22.272,9.128,29.028,27.262"></path>
            </g>
            <g>
              <path style="fill:#1F1F1F;" d="M294.608,351.65c0,0,51.418,4.017,113.012,35.35l-21.96,54.498
							c0,0-85.027-19.884-122.519-43.986c-37.492-24.102-31.465-57.357-13.055-63.87c27.252-9.642,110.669-2.796,110.669-2.796"></path>
            </g>
            <g>
              <path style="fill:none;stroke:#D2D2D2;stroke-linecap:round;stroke-miterlimit:10;" d="M294.608,351.65
							c0,0,51.418,4.017,113.012,35.35l-21.96,54.498c0,0-85.027-19.884-122.519-43.986"></path>
            </g>
          </g>
          <g>
            <g>
              <path style="fill:#F6C8A6;" d="M350.984,424.962l-26.162,6.853c0,0-3.852,2.97-7.401,2.738
							c-3.549-0.232-13.519-4.457-13.368-12.634c0.151-8.177,15.928-12.702,15.928-12.702l24.689-8.614L350.984,424.962z"></path>
              <g>
                <path style="fill:#1F1F1F;" d="M325.243,431.726c0,0-8.319,12.237-49.963,21.474c-41.643,9.237-8.062-47.289,44.7-43.982
								c0,0-15.793,9.327-13.047,17.74C309.679,435.37,325.243,431.726,325.243,431.726z"></path>
                <g>
                  <line style="fill:none;stroke:#FFFFFF;stroke-linecap:round;stroke-miterlimit:10;" x1="280.969" y1="429.709" x2="286.186" y2="441.541"></line>
                  <line style="fill:none;stroke:#FFFFFF;stroke-linecap:round;stroke-miterlimit:10;" x1="289.003" y1="424.576" x2="296.445" y2="440.056"></line>
                  <line style="fill:none;stroke:#FFFFFF;stroke-linecap:round;stroke-miterlimit:10;" x1="297.225" y1="420.637" x2="305.009" y2="436.487"></line>
                </g>
              </g>
              <path style="fill:none;stroke:#D2D2D2;stroke-linecap:round;stroke-miterlimit:10;" d="M256.568,447.241
							c0,0,0.156-13.702,16.339-24.067s29.044-14.714,39.83-14.095"></path>
            </g>
            <g>
              <path style="fill:#1F1F1F;" d="M432.795,353.208c0,0-51.418,4.017-113.012,35.35l21.96,54.497
							c0,0,85.027-19.884,122.519-43.986c37.492-24.102,31.465-57.357,13.055-63.871c-27.252-9.642-110.669-2.796-110.669-2.796"></path>
            </g>
            <g>
              <path style="fill:none;stroke:#1F1F1F;stroke-linecap:round;stroke-miterlimit:10;" d="M464.262,399.069"></path>
              <path style="fill:none;stroke:#D2D2D2;stroke-linecap:round;stroke-miterlimit:10;" d="M432.795,353.208
							c0,0-51.418,4.017-113.012,35.35l21.96,54.497c0,0,85.027-19.884,122.519-43.986"></path>
              <line style="fill:none;stroke:#D2D2D2;stroke-linecap:round;stroke-miterlimit:10;" x1="337.131" y1="380.301" x2="358.523" y2="438.804"></line>
            </g>
          </g>
        </g>
        <g>
          <g>
            <path style="fill:#4CAF6E;" d="M297.594,212.227c-66.077,48.822-56.008,110.223-17.598,105.452
						c31.706-3.938,72.769-32.214,72.769-32.214L297.594,212.227z"></path>
            <path style="fill:#4CAF6E;" d="M428.877,212.211c66.077,48.822,56.008,110.223,17.598,105.452
						c-31.706-3.938-72.769-32.214-72.769-32.214L428.877,212.211z"></path>
          </g>
          <g>
            <g>
              <g>
                <polygon style="fill:#FFFFFF;" points="346.241,182.249 312.89,213.618 323.731,333.733 402.756,332.638 419.061,218.846 
								377.312,182.249 							"></polygon>
              </g>
              <rect x="320.831" y="325.643" style="fill:#1F1F1F;" width="86.473" height="10.359"></rect>
            </g>
            <g>
              <path style="fill:#1F1F1F;" d="M381.629,301.194c0-6.022-9.852-79.388-10.456-84.286c-0.604-4.898-3.529-16.274-3.529-16.274
							l-3.484-1.332l0-0.006l-0.007,0.003l-0.008-0.003l0,0.006l-3.484,1.332c0,0-2.925,11.375-3.529,16.274
							c-0.604,4.898-5.529,79.977-6.334,85.437c-0.381,2.586,3.59,9.329,7.769,14.989l9.476,11.723
							C372.221,323.398,381.629,303.806,381.629,301.194z"></path>
              <g>
                <polygon style="fill:#1F1F1F;" points="366.594,187.681 361.541,187.681 354.429,187.681 355.257,193.752 360.553,202.607 
								362.865,202.607 365.27,202.607 367.583,202.607 372.879,193.752 373.706,187.681 							"></polygon>
                <g>
                  <g>
                    <path style="fill:#D2D2D2;" d="M360.967,203.065c2.124,0,4.248,0,6.372,0c0.643,0,0.645-1,0-1c-2.124,0-4.248,0-6.372,0
										C360.323,202.065,360.322,203.065,360.967,203.065L360.967,203.065z"></path>
                  </g>
                </g>
              </g>
            </g>
          </g>
          <g>
            <g>
              <g>
                <path style="fill:#4CAF6E;" d="M368.976,296.01l-22.98-107.966l0.245-5.795l-2.648,1.324c0,0-48.192,24.827-48.633,32.771
								c-0.441,7.945,14.786,88.522,14.786,88.522s-7.68,12.597-12.076,23.49l7.082,9.506l10.004,10.693l14.575,12.916l12.423,6.695
								c1.31-2.059,8.563-13.025,9.716-15.149c6.913-12.74,13.16-27.879,16.484-39.687
								C369.791,306.805,369.439,301.391,368.976,296.01z"></path>
                <g>
                  <line style="fill:none;stroke:#1F1F1F;stroke-linecap:round;stroke-miterlimit:10;" x1="345.386" y1="188.759" x2="368.976" y2="296.01"></line>
                  <polyline style="fill:none;stroke:#1F1F1F;stroke-linecap:round;stroke-miterlimit:10;" points="366.019,295.955 
									326.462,220.482 335.069,211.544 326.462,207.572 333.027,191.848 								"></polyline>
                  <path style="fill:none;stroke:#1F1F1F;stroke-linecap:round;stroke-miterlimit:10;" d="M299.937,253.507l9.808,51.359
									l-12.357,23.621c0,0,19.039,27.601,44.367,39.678c0,0,14.869-18.703,24.869-50.502"></path>
                  <line style="fill:none;stroke:#1F1F1F;stroke-linecap:round;stroke-miterlimit:10;" x1="318.545" y1="309.681" x2="337.131" y2="320.975"></line>
                </g>
              </g>
            </g>
            <g>
              <g>
                <g>
                  <path style="fill:#4CAF6E;" d="M407.62,352.036c11.119-11.316,17.086-17.637,21.04-24.029
									c-5.45-10.976-11.918-23.141-11.918-23.141s15.227-80.577,14.786-88.522c-0.441-7.945-48.633-32.771-48.633-32.771
									l-2.648-1.324l0.582,6.014L357.511,296.01c0.308,6.703-0.058,13.786,1.953,21.653c2.757,10.786,9.068,21.819,14.4,33.986
									c2.583,5.896,6.218,10.923,10.155,16.099C388.847,365.788,398.813,360.998,407.62,352.036z"></path>
                  <g>
                    <polyline style="fill:none;stroke:#1F1F1F;stroke-linecap:round;stroke-miterlimit:10;" points="360.468,295.955 
										400.025,220.482 391.418,211.544 400.025,207.572 393.46,191.848 									"></polyline>
                    <path style="fill:none;stroke:#1F1F1F;stroke-linecap:round;stroke-miterlimit:10;" d="M426.151,253.507l-9.808,51.359
										l12.357,23.621c0,0-19.039,27.601-44.367,39.678c0,0-14.869-18.703-24.869-50.502c0,0-2.398-19.183-1.953-21.653
										l23.59-107.252"></path>
                  </g>
                </g>
                <line style="fill:none;stroke:#1F1F1F;stroke-linecap:round;stroke-miterlimit:10;" x1="405.892" y1="309.681" x2="387.306" y2="320.975"></line>
              </g>
              <path style="fill:#1F1F1F;" d="M370.922,302.266c0,1.866-1.513,3.38-3.38,3.38c-1.866,0-3.38-1.513-3.38-3.38
							c0-1.867,1.513-3.38,3.38-3.38C369.409,298.886,370.922,300.399,370.922,302.266z"></path>
            </g>
          </g>
          <g>
            <polygon style="fill:#FFFFFF;stroke:#1F1F1F;stroke-width:0.75;stroke-linecap:round;stroke-miterlimit:10;" points="
						381.992,183.512 374.196,174.937 364.719,174.937 361.628,174.937 352.151,174.937 344.355,183.512 350.479,200.426 
						363.173,190.133 375.868,200.426 					"></polygon>
            <g>
              <g>
                <g>
                  <path style="fill:#AC6E4E;" d="M394.045,120.019c-1.604-3.531-2.37-2.57-2.151-6.289c0.219-3.719-3.504-9.407-7.744-10.179
									c-4.24-0.772-6.673,0.469-10.007-1.391c-3.334-1.86-5.504-2.002-9.449-1.781c-2.34,0.131-3.664,1.42-5.387,1.946
									c-0.703,0.05-1.394,0.109-2.064,0.183c-0.721-0.089-1.538-0.331-2.507-0.804c-4.965-2.427-13.572,2.538-14.618,5.407
									c-1.046,2.869-3.588,3.862-7.452,8.496c-3.864,4.634-3.86,11.917-3.136,15.117c0.724,3.2-0.393,4.524,0.719,9.253
									c0.602,2.559,2.176,4.055,3.496,4.896c1.989,4.654,4.099,8.064,4.163,8.263c6.376,19.955,38.4,14.571,40.939,13.297
									c1.739-0.873,7.649-7.521,11.353-19.357c1.839-2.15,3.25-4.531,3.432-6.382c0.272-2.759-1.382-3.791,0.165-7.026
									C395.345,130.432,395.649,123.55,394.045,120.019z"></path>
                  <g>
                    <g>
                      <path style="fill: rgb(244, 178, 152);" d="M397.919,152.578c-0.142,3.77-3.339,6.71-7.139,6.566
											c-3.801-0.143-6.766-3.316-6.624-7.085c0.142-3.77,3.339-6.709,7.139-6.566
											C395.095,145.636,398.061,148.809,397.919,152.578z"></path>
                      <path style="fill: none; stroke: rgb(38, 36, 74); stroke-width: 0.75; stroke-linecap: round; stroke-miterlimit: 10;" d="M387.281,153.08
											c0,0-0.128-4.648,4.613-3.953"></path>
                    </g>
                    <g>
                      <path style="fill: rgb(244, 178, 152);" d="M329.535,151.111c-0.142,3.77,2.823,6.942,6.624,7.086
											c3.801,0.143,6.997-2.796,7.139-6.566c0.142-3.77-2.824-6.942-6.624-7.085
											C332.873,144.401,329.677,147.341,329.535,151.111z"></path>
                      <path style="fill: none; stroke: rgb(38, 36, 74); stroke-width: 0.75; stroke-linecap: round; stroke-miterlimit: 10;" d="
											M340.105,152.413c0,0,0.478-4.625-4.302-4.29"></path>
                    </g>
                  </g>
                  <g>
                    <path style="fill: rgb(244, 178, 152);" d="M366.674,185.801h-7.019c-4.358,0-7.891-3.533-7.891-7.891v-12.794
										c0-4.358,3.533-7.891,7.891-7.891h7.019c4.358,0,7.891,3.533,7.891,7.891v12.794
										C374.565,182.268,371.032,185.801,366.674,185.801z"></path>
                    <g>
                      <path style="fill: rgb(244, 178, 152);" d="M384.996,157.462c-0.146,8.415-7.151,15.181-15.566,15.035l-12.91-0.224
											c-8.415-0.146-15.181-7.151-15.035-15.566l0.469-27.025c0.146-8.415,7.151-15.181,15.566-15.035l12.91,0.224
											c8.415,0.146,15.181,7.151,15.035,15.566L384.996,157.462z"></path>
                    </g>
                    <g>
                      <g>
                        <path style="fill:#E0947E;" d="M353.345,153.119c-0.282,3.015-2.954,5.231-5.969,4.949
												c-3.015-0.281-5.23-2.954-4.949-5.968c0.282-3.015,2.954-5.231,5.969-4.949
												C351.41,147.432,353.626,150.104,353.345,153.119z"></path>
                        <path style="fill:#E0947E;" d="M383.326,153.639c-0.281,3.015-2.954,5.23-5.968,4.949
												c-3.015-0.281-5.231-2.954-4.949-5.968c0.281-3.015,2.954-5.23,5.969-4.949
												C381.392,147.953,383.608,150.625,383.326,153.639z"></path>
                      </g>
                      <g>
                        <path style="fill:#AC6E4E;" d="M340.118,129.662c0,0,7.095-3.73,9.639-8.386c2.544-4.656,5.2-5.296,10.607-3.862
												c5.407,1.434,8.607-1.623,8.607-1.623s2.67,6.951,7.79,6.935c5.12-0.016,6.113,1.639,6.113,4.508
												c0,2.869-0.552,10.604,3.972,11.04c4.524,0.436,3.641-10.819,1.765-15.453c-1.876-4.634-11.41-11.807-18.67-14.013
												c-7.26-2.207-12.806-1.986-20.184,2.979C342.378,116.752,337.085,122.269,340.118,129.662z"></path>
                      </g>
                      <path style="fill: none; stroke: rgb(38, 36, 74); stroke-width: 0.75; stroke-linecap: round; stroke-miterlimit: 10;" d="
											M359.179,156.447c0.251,2.136,2.149,3.824,4.51,3.865c2.361,0.041,4.316-1.58,4.641-3.706"></path>
                      <g>
                        <g>
                          <g>
                            <path style="fill: rgb(38, 36, 74);" d="M374.995,133.713c1.669,0.584,3.316,1.232,4.932,1.95
														c0.37,0.164,0.806,0.108,1.026-0.269c0.187-0.32,0.103-0.861-0.269-1.026c-1.735-0.771-3.499-1.474-5.29-2.101
														c-0.382-0.134-0.821,0.152-0.923,0.524C374.357,133.204,374.611,133.579,374.995,133.713L374.995,133.713z"></path>
                          </g>
                        </g>
                        <g>
                          <g>
                            <path style="fill: rgb(38, 36, 74);" d="M347.451,135.819c2.084-0.6,4.168-1.2,6.252-1.799c0.926-0.266,0.532-1.714-0.399-1.446
														c-2.084,0.6-4.168,1.199-6.252,1.799C346.126,134.639,346.52,136.087,347.451,135.819L347.451,135.819z"></path>
                          </g>
                        </g>
                      </g>
                      <path style="fill: none; stroke: rgb(38, 36, 74); stroke-width: 0.75; stroke-linecap: round; stroke-miterlimit: 10;" d="
											M363.052,141.673c-0.324,2.755-0.711,5.503-1.159,8.24c1.127,0.022,2.254,0.044,3.381,0.066"></path>
                      <g>
                        <path style="fill: none; stroke: rgb(38, 36, 74); stroke-width: 0.75; stroke-linecap: round; stroke-miterlimit: 10;" d="
												M353.584,139.55c0,2.838-1.565,5.138-3.495,5.138c-1.93,0-3.495-2.3-3.495-5.138"></path>
                        <path style="fill: none; stroke: rgb(38, 36, 74); stroke-width: 0.75; stroke-linecap: round; stroke-miterlimit: 10;" d="
												M380.255,139.55c0,2.838-1.565,5.138-3.495,5.138c-1.93,0-3.495-2.3-3.495-5.138"></path>
                      </g>
                    </g>
                    <g>
                      <path style="fill: none; stroke: rgb(38, 36, 74); stroke-width: 0.75; stroke-linecap: round; stroke-miterlimit: 10;" d="
											M376.558,170.863c-2.144,1.085-4.571,1.678-7.128,1.634l-12.91-0.224c-2.41-0.042-4.684-0.646-6.7-1.685"></path>
                    </g>
                  </g>
                </g>
              </g>
            </g>
          </g>
        </g>
        <g>
          <g>
            <g>
              <g>
                <path style="fill: rgb(244, 178, 152);" d="M446.476,272.125L375.8,244.194c0,0-3.507-20.03-6.486-26.372
								c-2.979-6.342-3.674-7.081-5.358-6.84c-1.684,0.241-2.332,2.712-2.33,3.739c0.001,1.027-0.331,2.469-0.691,3.086
								c-0.36,0.617,0.154,32.766,0.206,34.515c0.052,1.749,0.257,14.608,3.395,17.54c3.138,2.932,48.813,28.101,48.813,28.101
								l20.937,12.587L446.476,272.125z"></path>
                <g>
                  <g>
                    <g>
                      <path style="fill: rgb(38, 36, 74);" d="M370.349,233.755c-0.753-4.61-1.831-9.353-4.043-13.509
											c-0.753-1.415-2.166-4.042-4.061-4.14c-1.328-0.068-1.677,1.34-1.778,2.392c-0.175,1.814-0.155,3.656-0.163,5.476
											c-0.029,6.438,0.153,12.88,0.405,19.313c0.251,6.423,0.535,12.866,1.215,19.26c0.186,1.751,0.314,3.615,0.842,5.305
											c0.252,0.807,0.698,1.205,1.36,1.702c2.917,2.194,6.156,4.012,9.282,5.883c11.029,6.598,22.23,12.911,33.408,19.252
											c5.038,2.858,10.081,5.709,15.112,8.579c2.768,1.579,5.593,3.101,8.277,4.823c0.295,0.189,0.378,0.392,0.325,0.14
											c0.099,0.472,0.822,0.272,0.723-0.199c-0.091-0.434-1.047-0.826-1.368-1.02c-1.216-0.738-2.449-1.447-3.681-2.158
											c-4.26-2.457-8.541-4.877-12.819-7.303c-11.119-6.305-22.251-12.588-33.288-19.036c-4.152-2.426-8.307-4.855-12.365-7.436
											c-1.13-0.719-2.284-1.432-3.34-2.258c-0.693-0.541-0.851-0.873-1.058-1.773c-1.102-4.785-1.167-9.93-1.447-14.809
											c-0.391-6.801-0.633-13.611-0.762-20.422c-0.083-4.426-0.425-9.063,0.109-13.473c0.183-1.51,1.039-1.851,2.206-0.814
											c2.388,2.121,3.571,5.786,4.461,8.728c0.763,2.52,1.303,5.1,1.727,7.697C369.703,234.43,370.426,234.228,370.349,233.755
											L370.349,233.755z"></path>
                    </g>
                  </g>
                  <g>
                    <g>
                      <path style="fill: rgb(38, 36, 74);" d="M362.039,216.595c-0.153-1.603-0.141-4.948,1.964-5.24c2.394-0.332,3.743,3.535,4.43,5.22
											c1.528,3.748,2.454,7.668,3.449,11.577c0.596,2.339,1.191,4.677,1.787,7.015c0.119,0.467,0.843,0.269,0.723-0.199
											c-0.947-3.72-1.827-7.464-2.822-11.172c-0.833-3.105-1.775-6.235-3.169-9.141c-0.861-1.794-2.3-4.588-4.748-4.004
											c-2.374,0.566-2.55,3.99-2.364,5.944C361.334,217.072,362.085,217.076,362.039,216.595L362.039,216.595z"></path>
                    </g>
                  </g>
                </g>
              </g>
              <g>
                <path style="fill:#4CAF6E;" d="M441.585,262.304l-50.857-18.402l-17.022,41.548c0,0,41.064,28.275,72.769,32.214
								c20.902,2.596,33.411-14.404,29.824-38.308L441.585,262.304z"></path>
                <path style="fill:none;stroke:#1F1F1F;stroke-linecap:round;stroke-miterlimit:10;" d="M476.692,291.771
								c-1.694,17.082-13.161,28.011-30.217,25.893c-31.706-3.938-72.769-32.214-72.769-32.214l17.022-41.548l50.857,18.402"></path>
                <g>
                  <path style="fill:#1F1F1F;" d="M381.629,284.543c0,0.845-0.685,1.53-1.53,1.53c-0.845,0-1.53-0.685-1.53-1.53
									c0-0.845,0.685-1.53,1.53-1.53C380.944,283.013,381.629,283.698,381.629,284.543z"></path>
                  <path style="fill:#1F1F1F;" d="M387.306,287.966c0,0.845-0.685,1.53-1.53,1.53c-0.845,0-1.53-0.685-1.53-1.53
									c0-0.845,0.685-1.53,1.53-1.53C386.621,286.436,387.306,287.121,387.306,287.966z"></path>
                  <path style="fill:#1F1F1F;" d="M392.959,291.77c0,0.845-0.685,1.53-1.53,1.53c-0.845,0-1.53-0.685-1.53-1.53
									c0-0.845,0.685-1.53,1.53-1.53C392.274,290.24,392.959,290.925,392.959,291.77z"></path>
                </g>
              </g>
            </g>
          </g>
          <g>
            <g>
              <g>
                <path style="fill: rgb(244, 178, 152);" d="M279.996,272.141l70.676-27.931c0,0,3.507-20.03,6.486-26.372
								c2.979-6.342,3.674-7.081,5.358-6.84c1.684,0.241,2.332,2.711,2.331,3.739c-0.002,1.027,0.331,2.469,0.691,3.086
								c0.36,0.617-0.154,32.766-0.206,34.515c-0.052,1.749-0.257,14.608-3.395,17.54c-3.138,2.932-48.813,28.101-48.813,28.101
								l-20.937,12.587L279.996,272.141z"></path>
                <g>
                  <g>
                    <g>
                      <path style="fill: rgb(38, 36, 74);" d="M356.846,233.971c0.747-4.577,1.801-9.323,4.024-13.437
											c0.436-0.807,2.418-4.491,3.841-3.544c0.824,0.549,0.623,2.654,0.65,3.467c0.077,2.324,0.068,4.651,0.048,6.975
											c-0.055,6.631-0.26,13.262-0.567,19.886c-0.269,5.792-0.515,11.635-1.299,17.385c-0.138,1.015-0.238,2.776-0.79,3.535
											c-0.486,0.67-1.427,1.157-2.096,1.608c-3.479,2.345-7.117,4.465-10.728,6.598c-10.911,6.447-21.949,12.68-32.974,18.931
											c-4.716,2.674-9.436,5.343-14.143,8.035c-2.362,1.351-4.996,2.574-7.178,4.217c-0.148,0.112-0.374,0.22-0.416,0.422
											c-0.098,0.471,0.624,0.672,0.723,0.199c-0.029,0.137-0.13,0.167-0.011,0.083c0.11-0.077,0.223-0.151,0.336-0.223
											c0.404-0.259,0.816-0.504,1.228-0.75c1.403-0.836,2.819-1.65,4.235-2.463c4.639-2.664,9.297-5.296,13.951-7.935
											c11.362-6.442,22.741-12.861,33.993-19.494c3.794-2.236,7.616-4.457,11.274-6.913c0.752-0.505,1.704-1.027,2.293-1.735
											c0.685-0.823,0.767-2.188,0.922-3.198c0.859-5.602,1.088-11.327,1.366-16.98c0.34-6.917,0.561-13.844,0.627-20.769
											c0.023-2.426,0.036-4.854-0.04-7.279c-0.035-1.134,0.096-2.731-0.546-3.739c-0.867-1.36-2.4-0.503-3.276,0.364
											c-2.237,2.215-3.427,5.589-4.339,8.518c-0.818,2.628-1.388,5.324-1.832,8.038
											C356.046,234.243,356.768,234.447,356.846,233.971L356.846,233.971z"></path>
                    </g>
                  </g>
                  <g>
                    <g>
                      <path style="fill: rgb(38, 36, 74);" d="M365.183,216.611c0.169-1.781,0.07-4.527-1.602-5.619c-2.224-1.453-4.07,0.99-5.007,2.694
											c-2.319,4.218-3.424,9.07-4.562,13.71c-0.62,2.529-1.286,5.048-1.929,7.571c-0.119,0.468,0.604,0.667,0.723,0.199
											c0.818-3.209,1.619-6.422,2.424-9.634c0.669-2.67,1.434-5.325,2.403-7.903c0.506-1.346,1.066-2.687,1.795-3.93
											c0.479-0.817,1.125-1.905,2.073-2.245c2.844-1.02,3.1,3.403,2.933,5.157C364.387,217.091,365.137,217.088,365.183,216.611
											L365.183,216.611z"></path>
                    </g>
                  </g>
                </g>
              </g>
              <g>
                <path style="fill:#4CAF6E;" d="M284.886,262.32l50.857-18.402l17.022,41.548c0,0-41.064,28.276-72.769,32.214
								c-20.902,2.596-33.411-14.404-29.824-38.308L284.886,262.32z"></path>
                <path style="fill:none;stroke:#1F1F1F;stroke-linecap:round;stroke-miterlimit:10;" d="M249.779,291.787
								c1.694,17.082,13.161,28.011,30.217,25.892c31.706-3.938,72.769-32.214,72.769-32.214l-17.022-41.548l-50.857,18.402"></path>
                <g>
                  <path style="fill:#1F1F1F;" d="M344.843,284.559c0,0.845,0.685,1.53,1.53,1.53s1.53-0.685,1.53-1.53
									c0-0.845-0.685-1.53-1.53-1.53S344.843,283.714,344.843,284.559z"></path>
                  <path style="fill:#1F1F1F;" d="M339.165,287.982c0,0.845,0.685,1.53,1.53,1.53c0.845,0,1.53-0.685,1.53-1.53
									c0-0.845-0.685-1.53-1.53-1.53C339.85,286.452,339.165,287.137,339.165,287.982z"></path>
                  <path style="fill:#1F1F1F;" d="M333.513,291.786c0,0.845,0.685,1.53,1.53,1.53s1.53-0.685,1.53-1.53s-0.685-1.53-1.53-1.53
									S333.513,290.941,333.513,291.786z"></path>
                </g>
              </g>
            </g>
          </g>
        </g>
      </g>
    </g>
  </g>
</svg>